<svg width="264" height="264" viewBox="0 0 264 264" fill="none" xmlns="http://www.w3.org/2000/svg">
<g filter="url(#filter0_d_10_177)">
<g clip-path="url(#clip0_10_177)">
<rect x="4" width="256" height="256" rx="43" fill="url(#paint0_linear_10_177)"/>
<g filter="url(#filter1_d_10_177)">
<path d="M87.5235 92.185C86.6683 90.5863 85.7435 89.0247 84.7492 87.5004C83.8293 86.115 82.7865 84.7507 81.6208 83.4074C82.8932 84.783 84.0451 86.2678 85.0766 87.8617C86.1776 89.4184 87.2115 91.1003 88.1783 92.9076C90.424 97.6068 91.6497 102.405 91.8554 107.301C92.0238 112.128 91.2878 116.769 89.6472 121.223C88.0762 125.639 85.6492 129.709 82.3662 133.432C79.1527 137.118 75.2521 140.188 70.6644 142.643C67.3279 144.428 63.6753 145.622 59.7067 146.225C59.8926 146.572 60.0624 146.973 60.216 147.428C60.4763 147.914 60.9225 148.748 61.5547 149.93C62.819 152.293 63.5353 153.966 63.7034 154.949C63.9411 155.895 63.7819 156.517 63.2259 156.814C62.9478 156.963 62.6601 156.759 62.3626 156.203C62.0651 155.647 61.749 155.056 61.4143 154.431C61.1864 153.837 60.9236 153.263 60.6261 152.707L58.5962 148.16C58.4103 147.813 58.243 147.5 58.0942 147.222C58.0522 146.976 57.9568 146.714 57.808 146.436L57.648 146.388C57.8808 147.157 58.1088 147.75 58.3319 148.167L60.2576 152.77C60.5971 153.571 60.8994 154.304 61.1646 154.966C61.5365 155.662 61.9083 156.357 62.2802 157.052C62.0021 157.201 61.7241 157.349 61.4461 157.498C61.2747 157.679 61.05 157.844 60.772 157.993C60.9951 158.41 61.2158 158.739 61.434 158.98C61.9449 159.6 62.2933 160.084 62.4792 160.432C62.8608 161.48 63.1147 162.372 63.2408 163.109C63.367 163.846 63.1868 164.345 62.7002 164.605C61.6575 165.163 60.4912 165.072 59.2011 164.331C57.9482 163.661 57.0429 162.804 56.4851 161.761C55.8157 160.51 55.2183 159.31 54.6929 158.16C54.2369 156.974 53.7648 155.841 53.2765 154.761L51.8117 151.521C51.3978 150.581 51.0186 149.621 50.6742 148.643C50.367 147.735 50.0412 146.791 49.6968 145.813C49.5901 145.781 49.502 145.783 49.4325 145.821C49.7397 146.729 50.0332 147.779 50.313 148.971C50.6622 150.125 51.06 151.119 51.5062 151.953L52.9856 155.721C53.3672 156.769 53.7488 157.816 54.1303 158.864C54.6186 159.944 55.1602 161.04 55.7552 162.152C54.1353 160.962 52.6932 159.185 51.4289 156.822L49.7337 152.901C49.2405 151.645 48.7288 150.354 48.1985 149.029C47.7748 147.736 47.386 146.424 47.0319 145.093C44.6845 144.382 42.722 143.555 41.1441 142.611C39.6358 141.63 38.2851 140.609 37.092 139.548C35.9684 138.451 34.9329 137.351 33.9855 136.248C33.0381 135.146 31.9493 134.03 30.719 132.9C29.7247 131.375 29.0044 130.196 28.5582 129.362L27.3869 127.173C25.4063 123.136 23.9681 118.944 23.0722 114.595C22.1391 110.177 21.9133 105.828 22.3948 101.547C22.8762 97.2662 24.1741 93.1745 26.2883 89.272C28.4025 85.3694 31.4794 81.8459 35.519 78.7014C35.4544 78.9148 35.4779 79.1258 35.5894 79.3343C35.8125 79.7514 36.4899 80.0148 37.6215 80.1247C38.7159 80.165 40.0213 80.1819 41.5377 80.1753C43.0863 80.0621 44.7417 79.9811 46.5038 79.9325C48.2286 79.8144 49.8517 79.8401 51.3729 80.0098C51.4052 79.9031 51.4028 79.815 51.3656 79.7455C48.8518 79.3916 46.5005 79.1743 44.3116 79.0936C42.1551 78.9063 39.8483 79.0228 37.3911 79.4433L37.2795 79.2348C37.2052 79.0957 37.0241 78.9244 36.7363 78.7207C36.4809 78.4104 36.2812 78.2043 36.1373 78.1024C32.8461 78.9691 30.3242 79.603 28.5719 80.004C26.8519 80.2983 25.7874 80.0632 25.3783 79.2986C24.9693 78.534 25.244 77.6271 26.2026 76.5778C27.2307 75.4914 28.5554 74.291 30.1767 72.9767C33.7832 72.0307 37.5061 71.4695 41.3455 71.2931C45.2544 71.0794 49.0153 71.2578 52.6284 71.8282L52.7181 71.2438C46.2339 70.1531 39.6399 70.1939 32.9361 71.3664C38.0103 68.6518 44.7077 67.8851 53.0283 69.0663L53.2635 68.0017C53.3296 65.2843 53.681 62.6824 54.3178 60.196C55.0241 57.6725 55.3755 55.0706 55.3721 52.3903C55.6598 52.594 55.9613 52.6562 56.2766 52.577C56.5918 52.4978 56.907 52.4185 57.2222 52.3393C57.5003 52.1905 57.7808 52.1299 58.0637 52.1574C58.3466 52.1848 58.5996 52.4071 58.8227 52.8242C59.0086 53.1717 59.1113 53.6979 59.1307 54.4027C59.2197 55.0704 59.1769 56.0767 59.0024 57.4217L60.2197 57.441C60.6577 55.4186 61.1749 53.7115 61.7713 52.3196C62.4 50.821 63.0967 49.8672 63.8613 49.4581C64.6259 49.0491 65.3429 49.4701 66.0123 50.7213C66.4213 51.4859 66.7382 52.7468 66.9631 54.504C67.2202 56.1545 67.3432 58.0556 67.332 60.2073C67.3532 62.2523 67.2353 64.3716 66.9784 66.5653C66.7215 68.759 66.3345 70.7094 65.8173 72.4166C67.6683 73.0356 69.2785 73.8729 70.6478 74.9284C71.9799 75.9144 73.4721 76.9489 75.1243 78.0319L74.4648 79.0553C77.1193 80.6749 79.5031 82.7076 81.6161 85.1533C83.7615 87.4924 85.5964 90.0868 87.1211 92.9368C89.3894 97.1769 90.5868 101.588 90.7132 106.169C90.8719 110.644 90.3371 114.908 89.1088 118.963L88.6166 120.299C86.9907 125.281 84.5661 129.439 81.3428 132.773C78.1196 136.106 74.1794 139.019 69.5222 141.51C66.3247 143.221 62.8831 144.392 59.1974 145.022C59.3461 145.3 59.4229 145.527 59.4278 145.704C61.4679 145.506 63.3779 145.066 65.1577 144.382C67.0442 143.73 68.8563 142.939 70.594 142.01C75.3207 139.481 79.1728 136.571 82.1504 133.28C85.2346 130.02 87.6082 125.934 89.2714 121.021L89.7635 119.685C91.0888 115.311 91.6325 110.728 91.3945 105.939C91.1566 101.149 89.8662 96.5642 87.5235 92.185ZM68.2094 126.522C69.349 125.644 70.2243 124.774 70.8353 123.911C71.5158 123.01 72.1058 122.024 72.6053 120.952C73.1047 119.88 73.6203 118.755 74.1521 117.577C74.7162 116.291 75.4702 114.86 76.4142 113.282C77.1059 110.23 77.5107 107.644 77.6286 105.525C77.7464 103.406 77.136 101.095 75.7973 98.5923C74.3843 95.9509 72.6422 93.5302 70.5713 91.3302C68.5003 89.1302 66.0519 87.3109 63.226 85.8723C62.6702 90.014 62.04 94.0167 61.3354 97.8804C60.6308 101.744 59.961 105.589 59.326 109.416C58.7232 113.135 58.2272 116.887 57.8378 120.672C57.4485 124.456 57.3259 128.322 57.47 132.268C59.6492 131.996 61.8161 131.284 63.971 130.131C64.7356 129.722 65.4606 129.155 66.1459 128.431C66.8313 127.707 67.5191 127.07 68.2094 126.522ZM36.8597 110.035C37.2058 112.354 37.8695 114.681 38.8509 117.016C39.8323 119.352 40.918 121.632 42.108 123.857L43.0489 125.365C43.3464 125.921 43.7482 126.421 44.2542 126.866C44.8297 127.273 45.3705 127.699 45.8765 128.144C45.7939 125.148 45.8898 122.236 46.1645 119.407C46.4714 116.471 46.8503 113.586 47.3012 110.752C47.8215 107.881 48.3604 105.045 48.918 102.244C49.4383 99.3724 49.8334 96.4343 50.1031 93.429L49.9504 93.6449C49.8809 93.6821 49.7022 93.5988 49.4145 93.3951C48.8489 97.1844 48.2834 100.974 47.7178 104.763C47.1151 108.483 46.6029 112.288 46.1812 116.179C46.1312 116.921 46.0722 117.981 46.0044 119.358C45.9689 120.629 45.8801 121.883 45.7379 123.122C45.9282 115.957 46.6172 108.973 47.805 102.168C48.9555 95.2947 50.0228 88.5995 51.0069 82.0831C47.2968 81.8327 44.2108 81.8297 41.7487 82.074C39.319 82.2115 37.8374 82.1995 37.304 82.0379C36.9338 82.6829 36.2509 83.4953 35.2551 84.475C34.2222 85.3852 32.9953 86.9356 31.5745 89.1262L32.7021 89.7299C34.443 87.6363 36.3214 86.0503 38.3372 84.9719C39.9359 84.1166 41.4053 83.6881 42.7455 83.6864C44.0856 83.6847 44.9044 83.9619 45.2019 84.518C45.3878 84.8656 44.953 85.724 43.8975 87.0933C42.842 88.4626 41.7105 90.2749 40.5031 92.5301C39.2584 94.7158 38.1836 97.3023 37.2785 100.29C36.4429 103.24 36.3033 106.489 36.8597 110.035ZM85.996 94.3433C85.2151 92.8835 84.4019 91.5305 83.5563 90.2842C82.7431 88.9312 81.8095 87.6873 80.7554 86.5525C81.5217 87.4836 82.2557 88.5214 82.9574 89.6659C83.6218 90.7409 84.2702 91.8692 84.9023 93.0509C87.8772 98.6117 89.2314 104.235 88.9651 109.92C88.7311 115.499 87.0776 120.764 84.0049 125.716C87.2862 120.653 89.014 115.527 89.1882 110.337C89.4643 105.004 88.4002 99.673 85.996 94.3433ZM67.1761 85.2343C66.8511 84.9611 66.5286 84.7761 66.2085 84.6791C65.8884 84.5821 65.4964 84.4342 65.0324 84.2354C68.2204 86.0167 70.7966 87.9911 72.7608 90.1588C74.6879 92.257 76.3394 94.592 77.7153 97.1639C79.463 100.431 80.202 103.567 79.9323 106.572C79.6253 109.508 78.8827 112.632 77.7044 115.944C79.2302 112.446 80.0399 109.197 80.1335 106.196C80.2271 103.196 79.4929 100.236 77.9311 97.3167C76.6296 94.8838 75.122 92.6506 73.4083 90.6171C71.7269 88.4769 69.6495 86.6826 67.1761 85.2343ZM68.9941 76.3495C67.8851 75.7805 66.7066 75.2488 65.4586 74.7542L65.3616 75.0743C67.1803 75.8 68.8624 76.6882 70.4079 77.7388C71.9162 78.72 73.4456 79.824 74.996 81.0509C74.0534 80.1247 73.1133 79.2865 72.1757 78.5365C71.2703 77.6798 70.2098 76.9508 68.9941 76.3495ZM56.9089 117.682C56.3465 120.307 55.8674 122.754 55.4715 125.022C55.0756 127.29 54.9488 129.727 55.0913 132.333C55.0555 129.76 55.2542 127.374 55.6873 125.175C56.0832 122.907 56.4904 120.409 56.9089 117.682ZM48.1944 123.953C48.2153 122.154 48.3057 120.318 48.4656 118.444C48.5883 116.501 48.7483 114.627 48.9454 112.823C48.619 115.054 48.3645 117.336 48.182 119.669C47.9623 121.932 47.8493 124.227 47.843 126.555L48.1944 123.953ZM45.3453 126.148C45.1545 125.624 45.0915 125.256 45.1561 125.042C45.2208 124.829 45.3266 124.191 45.4736 123.129L45.3453 126.148ZM57.4249 145.97C57.5639 145.896 57.5962 145.789 57.5218 145.65C57.4475 145.511 57.4079 145.354 57.403 145.178C57.264 145.252 57.2317 145.359 57.306 145.498C57.3804 145.637 57.42 145.794 57.4249 145.97ZM81.3492 83.1504C81.3864 83.2199 81.477 83.3056 81.6208 83.4074C81.5141 83.3751 81.4236 83.2894 81.3492 83.1504ZM120.836 91.1271C120.419 91.3502 120.113 91.7819 119.919 92.422C118.757 93.759 117.488 95.0637 116.113 96.336C114.769 97.5017 113.264 98.5307 111.595 99.4232C106.869 101.952 102.598 102.493 98.7849 101.046C94.9341 99.5302 91.6142 96.1655 88.8253 90.9522C87.4866 88.4498 86.2522 85.8917 85.122 83.2778C84.0291 80.7334 82.9595 78.3999 81.9135 76.2774C82.8577 78.5438 83.7672 80.8287 84.6419 83.1323C85.5215 85.6121 86.6306 88.1031 87.9693 90.6055C88.6386 91.8567 89.5982 93.3997 90.8479 95.2344C92.1672 97.0319 93.8154 98.6088 95.7925 99.965C97.7325 101.252 100.082 102.051 102.842 102.363C105.564 102.605 108.698 101.778 112.243 99.8814C113.911 98.989 115.417 97.9599 116.76 96.7943C118.136 95.5219 119.405 94.2173 120.567 92.8803C120.226 94.5826 119.407 96.2275 118.111 97.815C116.884 99.3654 115.158 100.736 112.934 101.926C110.084 103.45 106.988 104.347 103.645 104.615C100.371 104.847 97.2954 103.944 94.4178 101.907L94.4298 100.426C91.9887 98.8708 90.2338 97.2616 89.1651 95.5982C88.0592 93.8653 86.972 92.1672 85.9033 90.5038L77.9145 71.3091C76.5887 67.9952 75.1587 64.7371 73.6243 61.5348L73.2 61.4936C74.3916 65.0581 75.6132 68.4277 76.8646 71.6026C78.0789 74.708 79.344 77.7414 80.6601 80.7029L79.2099 77.992C77.9164 74.5714 76.6253 71.2389 75.3367 67.9945C74.0109 64.6806 72.7707 61.2762 71.6163 57.7812C70.4618 54.2863 69.372 50.5779 68.3468 46.6562C67.3912 42.6973 66.5834 38.3463 65.9235 33.6033C66.4567 29.9207 66.2092 26.7005 65.1809 23.9427C65.3894 23.8312 65.6165 23.7544 65.8622 23.7123C66.108 23.6703 66.5436 23.4819 67.1692 23.1472C67.5863 22.9241 67.9896 22.8424 68.3792 22.9022C68.8011 22.8553 69.1608 23.1099 69.4583 23.666C69.793 24.2916 70.0865 25.3415 70.3387 26.8158C70.4778 26.7415 70.7235 26.6994 71.0759 26.6897C71.3911 26.6105 71.6182 26.5337 71.7573 26.4593C71.8379 24.2704 71.9445 22.3807 72.077 20.7899C72.2789 19.162 72.7622 18.1436 73.5268 17.7345C74.0134 17.4742 74.5978 17.5639 75.28 18.0036C75.9946 18.3365 76.7051 19.1634 77.4116 20.484C78.6113 23.0608 79.4586 25.6473 79.9534 28.2434C80.5178 30.8024 80.9754 33.3291 81.3264 35.8235C81.6774 38.3178 82.0469 40.8469 82.4351 43.4108C82.8927 45.9375 83.5799 48.4754 84.4967 51.0247C85.5299 53.9587 86.6003 56.9623 87.7078 60.0353C88.7782 63.0388 89.8833 66.0237 91.0232 68.9901C92.1631 71.9564 93.2472 74.8185 94.2755 77.5763C95.3733 80.2969 96.4477 82.8066 97.4986 85.1053C98.577 87.1211 100.005 89.0391 101.784 90.8592C102.429 91.2294 102.965 91.4791 103.391 91.6084C103.781 91.6682 104.323 91.5121 105.019 91.1403C105.853 90.694 106.701 90.1064 107.562 89.3772C108.493 88.6109 109.341 88.0232 110.106 87.6142C110.592 87.3539 110.977 87.2375 111.26 87.2649C111.543 87.2924 111.847 87.4427 112.172 87.7159C111.496 88.7926 110.676 89.7674 109.713 90.6404C108.75 91.5135 107.781 92.2103 106.808 92.7309L105.348 93.5118C105.07 93.6605 104.827 93.7907 104.619 93.9022C105.458 93.6322 106.468 93.1811 107.65 92.5489C109.457 91.5821 111.076 90.1796 112.506 88.3415C112.841 88.9671 113.328 89.3768 113.969 89.5708C114.14 89.3897 114.496 88.8861 115.038 88.06C115.579 87.2339 116.128 86.6721 116.684 86.3746C118.352 85.4822 119.558 85.7311 120.302 87.1213C120.414 87.3298 120.512 87.6798 120.596 88.1712C120.68 88.6626 120.76 89.6479 120.836 91.1271ZM85.7312 91.9369C85.4709 91.4503 85.1363 90.8247 84.7272 90.0601C84.3877 89.2583 84.0482 88.4565 83.7086 87.6547L82.6342 85.1451C82.2575 84.2738 81.9366 83.5067 81.6714 82.8439C82.1597 83.9238 82.7967 85.2817 83.5825 86.9176C84.4006 88.4468 85.0141 89.5937 85.4232 90.3583L87.6543 94.529C87.9518 95.085 88.2679 95.6759 88.6026 96.3015C89.0068 96.8899 89.3923 97.4435 89.7593 97.9624C88.8863 96.999 88.1362 96.0146 87.5089 95.0091C86.8444 93.9341 86.2518 92.9101 85.7312 91.9369ZM95.7261 86.0535C94.8709 84.4548 94.1384 82.835 93.5289 81.1943C92.9193 79.5535 92.2564 77.8965 91.5402 76.2234C92.0479 78.0081 92.6065 79.7208 93.2161 81.3616C93.8952 82.9652 94.5928 84.6035 95.3091 86.2766L96.09 87.7364C96.3503 88.2229 96.6639 88.7257 97.0309 89.2446L96.6405 88.5147C96.4545 88.1672 96.2848 87.7663 96.1312 87.312C95.9776 86.8578 95.8426 86.4383 95.7261 86.0535ZM81.6156 82.7397C81.5413 82.6007 81.4855 82.4964 81.4483 82.4269C81.4806 82.3202 81.4782 82.2321 81.441 82.1626C81.5898 82.4406 81.648 82.633 81.6156 82.7397ZM163.874 32.0288C163.153 34.0237 162.135 36.1326 160.821 38.3555C159.507 40.5784 158.086 42.7689 156.559 44.9271C154.994 47.0159 153.408 48.9817 151.802 50.8247C150.158 52.5982 148.648 54.1211 147.272 55.3935C145.934 56.7353 144.735 58.0028 143.674 59.1959C142.577 60.3195 141.586 61.4754 140.701 62.6636C139.817 63.8519 138.97 65.1096 138.16 66.4369C137.351 67.7641 136.58 69.249 135.85 70.8915C135.318 72.07 134.851 73.0352 134.448 73.7869C134.116 74.5014 133.815 75.1093 133.547 75.6104C133.348 76.0744 133.147 76.4503 132.943 76.738C132.809 76.9886 132.675 77.2392 132.54 77.4898L136.461 75.7945C139.529 74.5108 142.512 73.3175 145.409 72.2149C148.268 71.0426 151.181 69.8866 154.148 68.7467C155.404 68.2536 156.155 67.986 156.4 67.9439C156.609 67.8324 156.817 67.7208 157.026 67.6093C162.912 64.9076 167.057 63.0474 169.463 62.0288C171.831 60.9407 173.238 60.8137 173.684 61.6478C173.833 61.9259 173.891 62.1183 173.859 62.225C170.935 63.6106 168.024 64.8547 165.127 65.9574C162.263 66.9534 158.986 68.3487 155.297 70.1434C153.795 70.6785 152.069 71.3786 150.118 72.2436C148.199 73.0019 146.213 73.8855 144.16 74.8944C142.139 75.7966 140.103 76.7521 138.05 77.761C136.066 78.7327 134.206 79.6834 132.468 80.613C130.869 81.4683 129.463 82.2654 128.249 83.0042C126.998 83.6736 126.027 84.2823 125.337 84.8303C127.213 83.8263 129.456 82.6711 132.065 81.3647C134.674 80.0584 137.372 78.7496 140.157 77.4384C142.905 76.0576 145.621 74.7836 148.304 73.6162C151.02 72.3422 153.391 71.3422 155.416 70.6162L159.344 69.1853C161.963 68.2313 164.334 67.2313 166.456 66.1852C168.648 65.102 171.07 64.03 173.721 62.9694C173.559 63.5029 173.571 63.9434 173.757 64.2909C174.092 64.9165 174.658 64.9715 175.455 64.4557C176.321 63.9028 177.61 63.303 179.32 62.6562C181.008 62.4686 182.26 62.4693 183.076 62.6584C183.925 62.7408 184.461 62.9905 184.684 63.4076C184.907 63.8246 184.852 64.3904 184.519 65.105C184.149 65.75 183.602 66.3999 182.88 67.0547L180.664 69.179C177.553 70.2171 174.64 71.3731 171.925 72.6471C169.241 73.8145 166.243 75.0611 162.929 76.3869L160.05 77.5243C157.677 78.4362 155.358 79.3643 153.091 80.3085C150.825 81.2528 148.489 82.2342 146.084 83.2528L134.585 88.3312C133.783 88.6707 132.931 89.0822 132.027 89.5656C131.086 89.9795 130.129 90.4468 129.156 90.9674L127.279 91.9714C126.654 92.3061 126.012 92.6941 125.354 93.1355L123.533 94.2438L119.238 86.2153C118.085 84.0605 117.714 82.1134 118.125 80.3739C118.498 78.5649 119.143 77.013 120.059 75.718C120.499 75.0358 120.976 74.4231 121.49 73.8799C121.351 73.9543 121.231 74.0634 121.129 74.2073C120.272 75.1126 119.508 76.1917 118.837 77.4446C118.199 78.5908 117.795 79.9245 117.625 81.4457C117.525 82.9297 117.959 84.5754 118.925 86.3827L123.228 94.6754L133.341 89.2649L139.869 86.1752C143.247 84.6359 146.559 83.222 149.803 81.9334C153.117 80.6076 156.415 79.3351 159.696 78.116L163.312 76.8524C166.102 75.7174 168.718 74.6753 171.161 73.7263C173.603 72.7772 176.134 71.8256 178.753 70.8717C177.891 71.6008 176.907 72.351 175.8 73.1222C174.799 73.9257 173.604 74.6993 172.213 75.443C170.893 76.1495 169.674 76.7122 168.557 77.1309C167.44 77.5497 166.149 78.0614 164.684 78.6661L161.125 80.034C158.506 80.9879 156.029 81.9556 153.693 82.937C151.32 83.8489 148.773 84.8538 146.052 85.9517L144.813 85.1394L136.368 89.6575C136.02 89.8434 135.656 90.0827 135.276 90.3753C134.859 90.5984 134.373 90.8587 133.817 91.1562L131.21 92.5507C130.306 93.0341 129.403 93.5175 128.499 94.0009C127.558 94.4148 126.529 94.8312 125.412 95.2499L122.27 96.3947L117.417 87.3236C116.19 85.0298 115.691 82.9274 115.921 81.0166C116.182 78.9991 116.75 77.2201 117.625 75.6794C118.499 74.1387 119.467 72.7719 120.527 71.5788C121.588 70.3857 122.354 69.3947 122.826 68.6057L124.22 65.446C125.885 61.8733 127.819 58.4695 130.022 55.2346C132.225 51.9997 134.753 49.0379 137.606 46.3494L138.947 45.0956C140.067 43.5129 141.348 41.9787 142.788 40.493C144.228 39.0073 145.49 37.4383 146.573 35.7861L145.981 35.4321C144.652 37.1263 143.233 38.7349 141.723 40.2578C140.283 41.7436 139.105 43.1339 138.188 44.4288L136.847 45.6826C133.892 48.515 131.262 51.6206 128.957 54.9994C126.722 58.341 124.857 61.7077 123.364 65.0993L122.227 67.9874L121.81 68.2105C121.601 68.3221 121.36 68.5404 121.087 68.8653L121.851 67.7862C123.894 62.5807 126.223 58.1608 128.839 54.5266C131.486 50.7857 134.304 47.4456 137.291 44.5065C139.412 42.1203 141.176 40.2377 142.584 38.8586C143.955 37.4101 145.165 35.9131 146.216 34.3675C143.171 35.1922 140.549 36.0581 138.353 36.9651C136.118 37.8026 134.098 38.7048 132.291 39.6716C131.387 40.1551 130.537 40.6546 129.74 41.1704C128.906 41.6166 128.09 42.0976 127.293 42.6133C126.769 42.8041 126.264 43.0297 125.778 43.29L124.422 44.0151C121.989 45.3166 119.756 46.8242 117.723 48.5379C115.759 50.2144 113.992 52.0089 112.422 53.9215C112.162 53.4349 111.749 53.1641 111.183 53.1092C110.65 52.9476 110.253 52.6235 109.992 52.1369C109.769 51.7199 109.942 50.9568 110.511 49.8478C111.15 48.7016 112.606 47.1625 114.88 45.2306L114.114 44.2995C111.937 45.9114 110.053 47.3211 108.464 48.5288C106.875 49.7365 105.49 50.6564 104.308 51.2886C103.544 51.6976 102.934 51.979 102.48 52.1326C102.095 52.249 101.722 52.1359 101.36 51.7932C101.285 51.6541 101.246 51.4965 101.241 51.3203C101.236 51.1441 101.196 50.9865 101.122 50.8475C101.769 48.7136 102.821 46.5861 104.279 44.465C105.7 42.2745 107.441 40.1809 109.502 38.1843C111.595 36.081 113.939 34.1119 116.533 32.2769C119.091 30.3724 121.829 28.6392 124.748 27.0774C126.903 25.9247 129.394 24.8155 132.222 23.75C135.118 22.6473 138.349 21.5001 141.914 20.3085C142.72 20.1452 143.457 20.019 144.125 19.9301C144.755 19.7716 145.439 19.6293 146.176 19.5031C146.914 19.377 147.739 19.2484 148.652 19.1174C149.565 18.9864 150.69 18.832 152.025 18.6541C151.918 18.6217 152.463 18.5538 153.659 18.4503C154.925 18.3095 156.377 18.5164 158.015 19.0707L163.874 32.0288ZM116.583 87.7698C115.728 86.1711 115.195 84.7574 114.985 83.5289C114.844 82.2631 114.917 81.062 115.203 79.9255C115.093 81.0571 115.108 82.2558 115.249 83.5216C115.459 84.7501 115.899 85.99 116.568 87.2412L121.812 97.0422L125.379 95.9386C126.463 95.6265 127.511 95.245 128.521 94.7939C129.531 94.3428 130.488 93.8755 131.392 93.3921C132.365 92.8715 133.234 92.4067 133.999 91.9976C134.726 91.5191 135.472 91.0753 136.237 90.6662L144.321 86.4755L136.453 90.819L135.306 91.4326C134.68 91.7672 134.004 92.1738 133.276 92.6524C132.581 93.0243 131.816 93.4333 130.982 93.8795C130.218 94.2886 129.365 94.7001 128.424 95.114C127.483 95.5279 126.471 95.8909 125.386 96.2029L121.715 97.3622L116.583 87.7698ZM120.532 69.8329L119.123 72.4639C118.587 73.4662 117.876 74.5615 116.992 75.7498C116.177 76.9008 115.581 78.2927 115.203 79.9255C115.482 77.2727 116.319 74.9924 117.712 73.0848C119.068 71.1076 120.193 69.7011 121.087 68.8653L120.532 69.8329ZM130.118 75.9696C129.145 76.4902 128.48 77.3373 128.125 78.5109C127.802 79.5779 127.506 80.362 127.237 80.8631L127.502 80.8558C127.738 80.4614 128.194 79.7258 128.869 78.6491C129.545 77.5724 130.271 76.4238 131.049 75.2032C131.826 73.9827 132.588 72.8155 133.333 71.7016C134.041 70.5182 134.58 69.604 134.95 68.959C134.714 69.3534 134.342 69.9104 133.832 70.6298C133.356 71.2425 132.863 71.9085 132.353 72.6279C131.844 73.3474 131.37 74.0482 130.93 74.7304C130.523 75.3059 130.252 75.719 130.118 75.9696ZM122.976 72.146C123.935 71.0968 124.421 70.1664 124.434 69.3549L124.836 68.6032C125.567 66.9607 126.313 65.2649 127.076 63.5157C127.871 61.6598 128.757 59.8896 129.734 58.205C128.308 60.2194 127.186 62.3841 126.368 64.699C125.513 66.9445 124.412 69.2321 123.066 71.5616C122.83 71.9561 122.559 72.3691 122.254 72.8008C122.495 72.5825 122.736 72.3643 122.976 72.146Z" fill="white"/>
</g>
<path d="M147.01 193.099L147.01 195.988C147.01 195.988 82.4253 216.665 55.7622 252.674C25.0849 294.103 -91.9192 304.786 -91.9192 304.786C-125.7 292.413 -142.067 287.498 -150.328 266.581C-107.475 252.674 -50.8463 283.009 42.2476 226.839C73.9463 207.713 126.954 193.082 147.01 193.099Z" fill="url(#paint1_linear_10_177)"/>
<path d="M145.978 197.396L147.468 201.12C134.512 200.942 92.9759 215.905 67.68 277.345C36.5842 352.872 -68.5306 354.732 -83.7834 357.505C-122.62 354.044 -131.851 349.865 -141.747 341.239L-99.7519 321.338C-85.1213 318.687 8.46767 314.352 53.3424 257.212C90.8752 209.421 132.425 198.482 145.978 197.396Z" fill="url(#paint2_linear_10_177)"/>
<path d="M147.486 194.736L146.575 200.206C133.066 200.258 91.5137 211.128 59.4869 259.657C30.6913 303.289 -77.0625 336.055 -114.338 330.752C-128.933 327.159 -134.965 322.696 -141.842 310.315C-141.842 310.315 -122.685 299.272 -110.096 295.181C-97.5065 291.09 22.7214 285.195 43.011 256.929C74.9389 212.448 133.338 196.207 147.486 194.736Z" fill="url(#paint3_linear_10_177)"/>
<path fill-rule="evenodd" clip-rule="evenodd" d="M145.072 168.771C146.176 171.564 147.374 174.593 147.453 176.436L147.969 179.274L129.253 191.054L120.367 195.576L111.313 199.656C110.938 198.902 110.605 198.63 109.732 198.49C108.105 198.942 107.334 199.319 106.413 200.386L104.365 202.303L103.598 200.953L100.568 202.613L100.336 205.985L103.361 213.925L105.525 218.279L107.269 218.878L108.692 218.967L110.236 218.379L109.826 216.64L109.877 216.663C110.475 216.933 110.825 217.091 112.673 216.819C113.878 216.752 114.642 216.578 116.081 216.152C117.1 215.54 117.089 215.112 116.9 214.324C124.426 211.685 126.434 211.132 128.223 210.895C133.974 209.199 136.972 208.5 142.087 207.508L152.328 205.88L158.457 205.061C162.781 204.477 164.927 204.363 168.729 204.179L176.586 203.586C178.844 203.329 179.863 203.088 181.512 202.593L198.937 195.955L234.229 182.511L244.816 178.478C246.148 177.926 246.765 177.604 247.668 177.013C248.651 176.265 248.979 175.492 249.002 173.221C247.966 168.911 247.115 166.27 245.557 161.526C244.007 156.36 242.917 153.603 240.726 148.843C239.233 145.711 238.347 144.217 236.698 141.916C235.653 140.643 234.938 140.229 233.51 139.847L230.716 140.469L228.768 141.545L224.349 137.928C218.296 133.736 214.079 131.705 208.519 129.029C205.203 127.432 201.409 125.606 196.464 122.953C196.718 122.097 196.713 121.7 195.461 121.691C195.195 120.965 194.855 120.925 194.022 121.288C194.158 121.186 191.885 119.871 190.005 122.099C189.041 123.242 188.587 124.332 188.261 125.118C187.95 125.865 187.755 126.336 187.344 126.315C185.045 126.062 184.824 126.425 184.441 127.056L184.422 127.087C181.46 128.111 179.788 129.019 176.796 130.976C175.511 131.147 174.883 131.358 174.499 132.658C173.574 132.756 173.347 133.029 173.174 133.688C172.175 133.26 171.437 133.319 169.722 134.101C169.661 132.644 169.174 132.427 167.783 132.733C166.349 131.721 163.488 130.326 161.892 129.548C161.33 129.273 160.924 129.076 160.794 128.998C160.291 128.701 160.299 128.55 160.328 127.944C160.343 127.624 159.623 127.135 158.909 126.648C158.268 126.212 157.63 125.778 157.53 125.472C157.318 124.824 160.118 125.959 161.398 126.506C162.678 127.053 163.394 124.141 162.742 123.169C162.391 122.646 162.41 122.281 162.429 121.939C162.444 121.644 162.459 121.366 162.237 121.019C162.05 120.726 161.781 120.503 161.542 120.305C161.167 119.994 160.867 119.745 161.069 119.384C161.202 119.147 161.545 118.924 161.9 118.694C162.43 118.349 162.989 117.987 162.919 117.528C162.853 117.087 162.424 117.003 162.038 116.927C161.755 116.871 161.494 116.82 161.413 116.637C161.324 116.434 161.545 116.207 161.792 115.954C162.075 115.664 162.392 115.339 162.312 114.979C162.248 114.693 161.626 114.375 160.918 114.013C159.952 113.52 158.826 112.945 158.736 112.257C161.949 107.588 164.091 104.403 156.598 107.417C154.697 105.079 153.597 103.939 151.519 102.468C142.227 106.236 140.408 107.947 139.799 110.687C139.94 111.349 140.44 112.523 142.65 117.14L140.238 118.057L139.486 118.538L139.367 119.109L139.711 119.551L140.419 119.979L140.027 123.119L139.142 124.474C139.462 125.429 139.623 125.58 139.904 125.695L137.764 127.901C136.944 129.629 136.731 130.366 136.433 131.604C135.937 133.144 135.875 133.794 135.778 134.808L135.778 134.808C135.77 134.9 135.761 134.995 135.751 135.094C135.322 137.144 135.436 138.205 135.726 140.074C135.757 141.73 136.057 142.637 136.681 144.25C136.801 146.963 137.303 148.484 138.416 151.196L140.32 155.843C140.705 157.149 141.074 157.895 142.282 159.277C141.28 158.889 141.542 159.95 141.798 160.529C141.821 160.594 141.902 160.721 142.007 160.886C142.303 161.352 142.791 162.121 142.73 162.639C142.651 163.306 142.966 163.845 143.415 164.19C143.74 165.402 144.388 167.042 145.072 168.771ZM173.315 154.317L178.593 163.483L201.218 154.478C199.522 153.874 196.309 150.797 193.762 148.358C192.641 147.285 191.65 146.335 190.973 145.774L190.352 146.048C190.619 146.971 190.35 147.287 189.515 147.678C187.433 148.284 186.223 148.509 183.701 147.948C184.109 149.915 184.022 150.834 183.141 152.052L179.256 152.656L173.315 154.317ZM211.511 150.01L203.016 153.698C200.677 153.031 196.384 149.015 193.472 146.292C192.705 145.575 192.034 144.947 191.519 144.494L192.15 142.732L193.019 142.348C195.872 142.879 199.234 144.625 202.501 146.322C205.814 148.042 209.028 149.711 211.511 150.01ZM193.08 130.233C191.636 130.795 190.993 130.835 189.959 130.722C189.718 131.903 189.571 132.554 189.126 133.537C189.482 134.483 189.399 134.888 188.943 135.472C184.737 138.316 182.204 139.693 177.289 141.659C174.688 143.091 173.156 143.69 170.08 143.806L170.464 144.675C174.471 143.63 176.597 143.151 179.752 142.87C180.976 142.332 181.692 142.288 183.058 142.967C184.035 142.203 184.692 141.594 186.143 140.046C187.527 139.166 188.327 138.933 189.823 139.311C190.321 139.848 190.672 140.116 191.714 140.403C192.209 141.005 192.452 141.14 192.836 141.094C196.502 141.783 200.383 143.746 204.012 145.582C207.442 147.317 210.646 148.938 213.232 149.263L219.014 146.753C215.65 144.847 212.06 142.336 208.386 139.767C203.32 136.225 198.094 132.571 193.08 130.233ZM195.749 125.197C195.578 124.599 195.757 124.349 196.324 123.979C198.011 125.132 201.184 126.884 204.896 128.933C205.672 129.361 206.469 129.799 207.279 130.244C214.846 134.397 223.595 139.199 226.753 142.953L223.749 144.697L220.576 146.075C217.171 144.21 213.626 141.746 209.99 139.218C204.758 135.581 199.338 131.812 193.873 129.512L195.729 128.173C196.068 127.477 195.926 127.281 195.635 126.953L196.188 126.19C196.35 125.757 196.324 125.53 195.749 125.197Z" fill="url(#paint4_linear_10_177)"/>
</g>
</g>
<defs>
<filter id="filter0_d_10_177" x="0" y="0" width="264" height="264" filterUnits="userSpaceOnUse" color-interpolation-filters="sRGB">
<feFlood flood-opacity="0" result="BackgroundImageFix"/>
<feColorMatrix in="SourceAlpha" type="matrix" values="0 0 0 0 0 0 0 0 0 0 0 0 0 0 0 0 0 0 127 0" result="hardAlpha"/>
<feOffset dy="4"/>
<feGaussianBlur stdDeviation="2"/>
<feComposite in2="hardAlpha" operator="out"/>
<feColorMatrix type="matrix" values="0 0 0 0 0 0 0 0 0 0 0 0 0 0 0 0 0 0 0.25 0"/>
<feBlend mode="normal" in2="BackgroundImageFix" result="effect1_dropShadow_10_177"/>
<feBlend mode="normal" in="SourceGraphic" in2="effect1_dropShadow_10_177" result="shape"/>
</filter>
<filter id="filter1_d_10_177" x="-7.86523" y="-18.3365" width="212.222" height="196.049" filterUnits="userSpaceOnUse" color-interpolation-filters="sRGB">
<feFlood flood-opacity="0" result="BackgroundImageFix"/>
<feColorMatrix in="SourceAlpha" type="matrix" values="0 0 0 0 0 0 0 0 0 0 0 0 0 0 0 0 0 0 127 0" result="hardAlpha"/>
<feOffset dx="4.72421" dy="6.74888"/>
<feComposite in2="hardAlpha" operator="out"/>
<feColorMatrix type="matrix" values="0 0 0 0 0.113725 0 0 0 0 0.576471 0 0 0 0 0.160784 0 0 0 1 0"/>
<feBlend mode="normal" in2="BackgroundImageFix" result="effect1_dropShadow_10_177"/>
<feBlend mode="normal" in="SourceGraphic" in2="effect1_dropShadow_10_177" result="shape"/>
</filter>
<linearGradient id="paint0_linear_10_177" x1="24.5" y1="28" x2="260" y2="256" gradientUnits="userSpaceOnUse">
<stop offset="0.101771" stop-color="#FAFF00"/>
<stop offset="1" stop-color="#F3CE6D"/>
</linearGradient>
<linearGradient id="paint1_linear_10_177" x1="-144.655" y1="278.08" x2="161.31" y2="223.936" gradientUnits="userSpaceOnUse">
<stop stop-color="#1D9329"/>
<stop offset="1" stop-color="#31D641"/>
</linearGradient>
<linearGradient id="paint2_linear_10_177" x1="-120.058" y1="347.554" x2="165.655" y2="243.409" gradientUnits="userSpaceOnUse">
<stop stop-color="#52F763"/>
<stop offset="1" stop-color="#00E817"/>
</linearGradient>
<linearGradient id="paint3_linear_10_177" x1="-143.94" y1="312.222" x2="157.517" y2="235.303" gradientUnits="userSpaceOnUse">
<stop stop-color="#67EA00"/>
<stop offset="1" stop-color="#60CE09"/>
</linearGradient>
<linearGradient id="paint4_linear_10_177" x1="139.504" y1="107.709" x2="182.869" y2="205.859" gradientUnits="userSpaceOnUse">
<stop stop-color="#1D9329"/>
<stop offset="1" stop-color="#1ECB30"/>
</linearGradient>
<clipPath id="clip0_10_177">
<rect x="4" width="256" height="256" rx="43" fill="white"/>
</clipPath>
</defs>
</svg>
