<svg width="2918" height="764" viewBox="0 0 2918 764" fill="none" xmlns="http://www.w3.org/2000/svg">
<g filter="url(#filter0_d_3_29)">
<rect x="140.205" y="86" width="2636.68" height="592" rx="250.462" fill="url(#paint0_linear_3_29)" shape-rendering="crispEdges"/>
</g>
<g filter="url(#filter1_d_3_29)">
<path d="M500.095 558.846V201.004H526.37V319.117C556.9 303.769 590.515 296.095 627.217 296.095C689.276 296.095 720.306 321.369 720.306 371.918C720.306 410.288 692.78 436.479 637.727 450.493L726.812 558.846H688.275L604.695 449.992V434.227C664.252 427.387 694.031 406.534 694.031 371.667C694.031 336.3 669.841 318.617 621.461 318.617C589.264 318.617 557.567 326.457 526.37 342.139V558.846H500.095ZM836.917 526.816C850.931 534.823 868.447 538.827 889.467 538.827C953.696 538.827 985.81 501.375 985.81 426.47C985.81 395.774 980.221 371.5 969.044 353.65L836.917 526.816ZM815.897 509.299L950.276 333.13C934.928 321.786 914.658 316.114 889.467 316.114C825.239 316.114 793.125 352.899 793.125 426.47C793.125 462.838 800.716 490.447 815.897 509.299ZM821.903 546.334L812.394 558.846H778.111L800.132 530.069C778.111 507.881 767.017 473.681 766.85 427.471C766.85 338.219 807.723 293.593 889.467 293.593C920.664 293.593 945.938 300.099 965.29 313.111L978.302 296.095H1012.84L985.559 331.879C1003.24 354.067 1012.08 385.931 1012.08 427.471C1012.08 516.556 971.212 561.098 889.467 561.098C862.442 561.098 839.92 556.177 821.903 546.334ZM1106.93 528.067C1133.78 532.905 1158.06 535.324 1179.74 535.324C1248.14 535.324 1282.34 497.037 1282.34 420.464C1282.34 354.234 1250.9 321.119 1188 321.119C1163.98 321.119 1136.95 325.623 1106.93 334.632V528.067ZM1080.65 201.004H1106.93V308.607C1138.46 300.266 1165.56 296.095 1188.25 296.095C1268 296.095 1307.87 338.135 1307.87 422.216C1307.87 513.303 1265.91 558.846 1182 558.846C1144.29 558.846 1110.51 555.259 1080.65 548.086V201.004ZM1664.71 214.017C1644.86 208.344 1624.42 205.508 1603.4 205.508C1552.35 205.508 1526.83 229.114 1526.83 276.326V296.095H1605.65V318.617H1526.83V558.846H1500.55V278.328C1500.55 214.767 1534.92 182.987 1603.65 182.987C1631.84 182.987 1660.96 188.826 1690.98 200.504V558.846H1664.71V214.017ZM1877.16 296.095C1949.06 296.095 1985.01 335.883 1985.01 415.459C1985.01 421.131 1984.85 427.054 1984.51 433.226H1785.07C1785.07 501.958 1821.44 536.325 1894.18 536.325C1924.04 536.325 1950.57 532.154 1973.75 523.813V546.334C1950.57 554.676 1924.04 558.846 1894.18 558.846C1803.92 558.846 1758.8 514.053 1758.8 424.468C1758.8 338.886 1798.25 296.095 1877.16 296.095ZM1785.07 409.704H1959.74C1958.74 348.645 1931.21 318.116 1877.16 318.116C1818.77 318.116 1788.08 348.645 1785.07 409.704ZM2052.58 558.846V296.095H2071.35L2074.6 339.637C2100.96 310.609 2130.32 296.095 2162.68 296.095V317.115C2131.32 317.115 2103.38 332.38 2078.85 362.909V558.846H2052.58ZM2317.58 296.095C2389.48 296.095 2425.44 335.883 2425.44 415.459C2425.44 421.131 2425.27 427.054 2424.94 433.226H2225.49C2225.49 501.958 2261.86 536.325 2334.6 536.325C2364.46 536.325 2390.99 532.154 2414.18 523.813V546.334C2390.99 554.676 2364.46 558.846 2334.6 558.846C2244.35 558.846 2199.22 514.053 2199.22 424.468C2199.22 338.886 2238.67 296.095 2317.58 296.095ZM2225.49 409.704H2400.16C2399.16 348.645 2371.63 318.116 2317.58 318.116C2259.19 318.116 2228.5 348.645 2225.49 409.704Z" fill="white"/>
</g>
<defs>
<filter id="filter0_d_3_29" x="126.544" y="86" width="2691.32" height="651.2" filterUnits="userSpaceOnUse" color-interpolation-filters="sRGB">
<feFlood flood-opacity="0" result="BackgroundImageFix"/>
<feColorMatrix in="SourceAlpha" type="matrix" values="0 0 0 0 0 0 0 0 0 0 0 0 0 0 0 0 0 0 127 0" result="hardAlpha"/>
<feOffset dx="13.6615" dy="31.8769"/>
<feGaussianBlur stdDeviation="13.6615"/>
<feComposite in2="hardAlpha" operator="out"/>
<feColorMatrix type="matrix" values="0 0 0 0 0 0 0 0 0 0 0 0 0 0 0 0 0 0 0.36 0"/>
<feBlend mode="normal" in2="BackgroundImageFix" result="effect1_dropShadow_3_29"/>
<feBlend mode="normal" in="SourceGraphic" in2="effect1_dropShadow_3_29" result="shape"/>
</filter>
<filter id="filter1_d_3_29" x="499.095" y="182.987" width="1937.34" height="390.111" filterUnits="userSpaceOnUse" color-interpolation-filters="sRGB">
<feFlood flood-opacity="0" result="BackgroundImageFix"/>
<feColorMatrix in="SourceAlpha" type="matrix" values="0 0 0 0 0 0 0 0 0 0 0 0 0 0 0 0 0 0 127 0" result="hardAlpha"/>
<feOffset dx="5" dy="6"/>
<feGaussianBlur stdDeviation="3"/>
<feComposite in2="hardAlpha" operator="out"/>
<feColorMatrix type="matrix" values="0 0 0 0 0 0 0 0 0 0 0 0 0 0 0 0 0 0 1 0"/>
<feBlend mode="normal" in2="BackgroundImageFix" result="effect1_dropShadow_3_29"/>
<feBlend mode="normal" in="SourceGraphic" in2="effect1_dropShadow_3_29" result="shape"/>
</filter>
<linearGradient id="paint0_linear_3_29" x1="1381.13" y1="135.093" x2="1524.24" y2="974.616" gradientUnits="userSpaceOnUse">
<stop stop-color="#C0FFC7"/>
<stop offset="0.291667" stop-color="#53D260"/>
<stop offset="0.625" stop-color="#43CB50"/>
<stop offset="0.911458" stop-color="#09B41A"/>
<stop offset="1" stop-color="#9FE6A6" stop-opacity="0"/>
</linearGradient>
</defs>
</svg>
