<svg width="5704" height="3814" viewBox="0 0 5704 3814" fill="none" xmlns="http://www.w3.org/2000/svg">
<g clip-path="url(#clip0_9_16)">
<path d="M3118.35 1867.6L3104.68 1961.13C3104.68 1961.13 2999.3 1753.66 2193.86 2747.87C1267.15 3891.75 429.906 3376.07 429.906 3376.07C-316.184 2758.33 527.703 1061.82 429.906 331.58C1516.42 156.904 374.636 2202.96 1582.78 2202.96C2524.8 2202.96 2640.72 1738.1 3118.35 1867.6Z" fill="url(#paint0_linear_9_16)"/>
<path d="M3118.35 1867.6L3104.68 1961.13C3104.68 1961.13 2999.3 1753.66 2193.86 2747.87C1267.15 3891.75 429.906 3376.07 429.906 3376.07C-316.184 2758.33 527.703 1061.82 429.906 331.58C1516.42 156.904 374.636 2202.96 1582.78 2202.96C2524.8 2202.96 2640.72 1738.1 3118.35 1867.6Z" fill="url(#paint1_linear_9_16)" fill-opacity="0.2"/>
<path d="M3118.35 1867.6L3104.68 1961.13C3104.68 1961.13 2999.3 1753.66 2193.86 2747.87C1267.15 3891.75 429.906 3376.07 429.906 3376.07C-316.184 2758.33 527.703 1061.82 429.906 331.58C1516.42 156.904 374.636 2202.96 1582.78 2202.96C2524.8 2202.96 2640.72 1738.1 3118.35 1867.6Z" stroke="url(#paint2_linear_9_16)" stroke-width="1.55689"/>
<path fill-rule="evenodd" clip-rule="evenodd" d="M3940.94 1522.29C3941.28 1572.82 3941.66 1627.6 3931.69 1657.01L3922.54 1704.66L3557.36 1775.66L3390.5 1792.57L3223.68 1801.54C3222.39 1787.42 3218.82 1781.14 3205.97 1773.64C3177.71 1770.83 3163.33 1772.06 3142.39 1783.2L3098.61 1800.82L3094.79 1774.99L3037.17 1782.6L3013.05 1834.08L3012.23 1977.01L3019.7 2058.45L3043.41 2078.44L3065.19 2088.5L3092.98 2088.66L3097.12 2058.9L3097.78 2059.57C3105.52 2067.44 3110.06 2072.05 3140.69 2079C3160 2085.29 3173.04 2087.2 3198.2 2089.26C3217.91 2085.86 3220.33 2079.08 3222.16 2065.57C3356.24 2069.92 3391.1 2073.45 3420.6 2080.61C3521.12 2088.97 3572.39 2096.22 3658.66 2111.76L3829.19 2148.48L3930.3 2172.88C4001.67 2190 4036.02 2201.25 4096.78 2221.49L4223.62 2259.94C4260.61 2269.63 4278.06 2272.06 4306.92 2274.31L4620.59 2276.12L5255.86 2279.77L5446.45 2280.86C5470.7 2280.29 5482.32 2279 5500.08 2275.22C5520.04 2269.46 5529.89 2259.33 5544.05 2223.85C5554.01 2149.95 5556.71 2103.34 5561.11 2019.46C5568.2 1929.02 5567.86 1879.15 5562.43 1791.16C5558.06 1732.96 5553.23 1704.14 5541.35 1658.02C5532.71 1631.71 5524 1620.87 5503.93 1606.19L5456.32 1598.97L5419.23 1604L5371.9 1520.4C5302.44 1417.87 5248.63 1360.38 5177.7 1284.61C5135.39 1239.4 5086.99 1187.69 5025.54 1116.03C5034.74 1104.14 5037.06 1097.88 5017.48 1090.13C5017.72 1077.13 5012.63 1074.44 4997.36 1075.07C5000.11 1074.29 4972.46 1039.85 4929.43 1063.37C4907.35 1075.43 4893.61 1089.78 4883.71 1100.12C4874.31 1109.94 4868.37 1116.14 4862.06 1113.33C4827.54 1095.38 4821.87 1099.73 4812.02 1107.3L4811.53 1107.67C4758.85 1105.72 4727.11 1109.8 4668.28 1122.31C4647.09 1117.18 4635.95 1116.68 4622.02 1134.73C4606.93 1130.65 4601.71 1133.55 4594.98 1142.84C4581.91 1130.04 4569.99 1126.49 4538.33 1128.33C4546.22 1105.1 4539.91 1098.73 4516.23 1095.09C4499.88 1070.5 4463.49 1031.23 4443.19 1009.31C4436.03 1001.6 4430.88 996.033 4429.3 994.023C4423.23 986.308 4424.26 983.975 4428.4 974.645C4430.58 969.727 4422.27 957.677 4414.02 945.704C4406.61 934.962 4399.25 924.282 4399.54 918.867C4400.15 907.415 4437.18 942.253 4453.93 958.611C4470.68 974.97 4499.61 933.647 4495.29 914.428C4492.97 904.094 4495.49 898.49 4497.86 893.229C4499.89 888.706 4501.81 884.437 4500.44 877.635C4499.28 871.902 4496.42 866.769 4493.88 862.209C4489.89 855.065 4486.69 849.328 4492.07 844.896C4495.6 841.984 4502.32 840.577 4509.28 839.119C4519.7 836.938 4530.66 834.642 4532.36 827.035C4534 819.7 4527.8 815.779 4522.19 812.237C4518.09 809.647 4514.31 807.26 4514.16 803.89C4513.98 800.173 4518.84 797.958 4524.25 795.488C4530.46 792.658 4537.4 789.494 4538.33 783.35C4539.08 778.481 4531.25 769.714 4522.34 759.731C4510.19 746.124 4496.02 730.258 4498.79 718.928C4577.57 665.225 4630.53 628.289 4494.67 630.017C4479.07 581.784 4468.74 557.209 4445.09 521.51C4276.44 524.13 4237.51 539.912 4211.3 579.183C4209.49 590.433 4210.19 611.883 4216.8 697.73L4173.38 697.458L4158.67 700.425L4153.34 708.668L4156.04 717.682L4164.55 728.71L4139.3 775.574L4117.19 791.449C4116.4 808.368 4118.01 811.718 4121.72 815.228L4074.74 836.825C4051.38 858.94 4043.57 869.206 4031.37 886.813C4014.22 907.964 4009.3 917.77 4001.62 933.085L4001.62 933.092C4000.92 934.483 4000.2 935.919 3999.44 937.413C3980.26 966.965 3975.6 984.287 3968.79 1015.37C3959.21 1041.53 3958.4 1057.59 3958.39 1086.68C3943.77 1129.96 3942.41 1156.87 3943.36 1206.18L3944.99 1290.63C3943.08 1313.46 3944.34 1327.41 3954.9 1356.43C3941.54 1344.25 3939.19 1362.49 3939.68 1373.13C3939.66 1374.29 3940.15 1376.77 3940.79 1379.99C3942.6 1389.1 3945.58 1404.14 3941.48 1411.88C3936.19 1421.86 3937.85 1432.23 3942.8 1440.38C3940.53 1461.37 3940.73 1491.02 3940.94 1522.29ZM4471.8 1467.26L4498.87 1643.11L4908.49 1639.41C4885.56 1619.62 4853.86 1551.83 4828.73 1498.08C4817.68 1474.44 4807.9 1453.52 4800.69 1440.59L4789.29 1441.12C4787.86 1457.22 4781.73 1460.55 4766.26 1461.61C4729.92 1458.46 4709.57 1454.62 4673.43 1430.5C4667.86 1463.82 4660.91 1477.71 4639.7 1491.46L4575.07 1477.32L4471.8 1467.26ZM5097.1 1631.89L4941.43 1638.09C4908.79 1613.41 4865.86 1524.33 4836.74 1463.91C4829.08 1448 4822.36 1434.08 4817.05 1423.84L4837.65 1400.04L4853.61 1399.3C4895.13 1424.97 4937.26 1472.8 4978.19 1519.27C5019.69 1566.39 5059.96 1612.1 5097.1 1631.89ZM4928.21 1209.64C4902.15 1209.67 4891.81 1206.4 4876.28 1198.34C4865.33 1215.4 4859.07 1224.71 4846.11 1237.44C4845.94 1254.43 4842.19 1260.28 4831.47 1266.67C4748.22 1285.71 4700.11 1291.91 4611.07 1292.88C4561.57 1299.54 4533.9 1299.61 4484.95 1282.74L4485.69 1298.7C4554.9 1306.66 4591.16 1312.08 4642.35 1326.84C4664.81 1325.85 4676.31 1329.5 4693.61 1348.46C4713.58 1342.41 4727.59 1336.85 4759.76 1321.4C4786.82 1316.01 4800.77 1317.21 4821.94 1332.23C4826.5 1343.69 4830.37 1350.03 4844.98 1360.86C4849.07 1373.31 4852.06 1376.91 4858.36 1378.52C4911.68 1411.61 4960.62 1466 5006.39 1516.85C5049.63 1564.9 5090.04 1609.81 5128.63 1630.63L5234.58 1626.4C5193.41 1576.06 5152.35 1514.86 5110.34 1452.23C5052.41 1365.88 4992.65 1276.8 4928.21 1209.64ZM5000.69 1146.88C5001.64 1136.45 5005.98 1133.62 5017.1 1131.27C5036.56 1159.61 5075.69 1206.38 5121.46 1261.09C5131.01 1272.51 5140.86 1284.22 5150.87 1296.12C5244.31 1407.26 5352.36 1535.76 5379.06 1613.84L5321.35 1622.94L5263.2 1625.26C5221.12 1575.32 5180.5 1515.11 5138.84 1453.36C5078.89 1364.51 5016.77 1272.45 4945.04 1203.15L4982.29 1193.43C4991.83 1184.58 4990.8 1180.64 4988.23 1173.73L5001.54 1165.12C5006.71 1159.3 5007.68 1155.59 5000.69 1146.88Z" fill="url(#paint3_linear_9_16)"/>
</g>
<defs>
<linearGradient id="paint0_linear_9_16" x1="-1576.5" y1="1149.5" x2="2397.12" y2="3226.58" gradientUnits="userSpaceOnUse">
<stop offset="0.239705" stop-color="#25B934"/>
<stop offset="0.501348" stop-color="#0F7A1A"/>
<stop offset="0.588067" stop-color="#2FA93B"/>
<stop offset="0.699588" stop-color="#2DA539"/>
<stop offset="0.807847" stop-color="#107B1A"/>
<stop offset="0.959624" stop-color="#1E8F2A"/>
</linearGradient>
<linearGradient id="paint1_linear_9_16" x1="1140" y1="2919" x2="969" y2="2546.5" gradientUnits="userSpaceOnUse">
<stop stop-color="white"/>
<stop offset="1" stop-color="#D2E06E" stop-opacity="0"/>
</linearGradient>
<linearGradient id="paint2_linear_9_16" x1="-2717.61" y1="1967.43" x2="2362.11" y2="1787.97" gradientUnits="userSpaceOnUse">
<stop stop-color="#099417"/>
<stop offset="1" stop-color="#3BEE4D"/>
</linearGradient>
<linearGradient id="paint3_linear_9_16" x1="4011.5" y1="1615" x2="4308.36" y2="2333.79" gradientUnits="userSpaceOnUse">
<stop stop-color="#0B7816"/>
<stop offset="1" stop-color="#36BF44"/>
</linearGradient>
<clipPath id="clip0_9_16">
<rect width="5704" height="3814" fill="white"/>
</clipPath>
</defs>
</svg>
