<svg width="5704" height="3814" viewBox="0 0 5704 3814" fill="none" xmlns="http://www.w3.org/2000/svg">
<g clip-path="url(#clip0_9_16)">
<path d="M3987.42 1619.18L3978.64 1663.39C3978.64 1663.39 2927.65 1783.49 2410.27 2253.39C1815 2794.04 248.889 3170.72 248.889 3170.72C-230.359 2878.74 311.709 1049.14 248.889 704C946.805 621.44 686.958 2393.57 2282 1817.05C2825.12 1620.75 3680.61 1557.97 3987.42 1619.18Z" fill="url(#paint0_linear_9_16)"/>
<path d="M2282 1817.05L2282.17 1817.52L2282 1817.05ZM3987.42 1619.18L3987.91 1619.28L3988 1618.79L3987.51 1618.69L3987.42 1619.18ZM3978.64 1663.39L3978.69 1663.88L3979.05 1663.84L3979.13 1663.48L3978.64 1663.39ZM2410.27 2253.39L2409.93 2253.02L2409.93 2253.02L2410.27 2253.39ZM248.889 3170.72L248.628 3171.14L248.805 3171.25L249.006 3171.2L248.889 3170.72ZM248.889 704L248.83 703.503L248.301 703.566L248.397 704.09L248.889 704ZM3986.92 1619.08L3978.14 1663.29L3979.13 1663.48L3987.91 1619.28L3986.92 1619.08ZM3978.64 1663.39C3978.58 1662.89 3978.57 1662.89 3978.57 1662.89C3978.56 1662.89 3978.55 1662.89 3978.53 1662.9C3978.5 1662.9 3978.45 1662.9 3978.39 1662.91C3978.26 1662.93 3978.07 1662.95 3977.81 1662.98C3977.31 1663.04 3976.55 1663.13 3975.54 1663.25C3973.54 1663.49 3970.56 1663.86 3966.64 1664.35C3958.82 1665.35 3947.27 1666.87 3932.39 1668.97C3902.64 1673.17 3859.56 1679.7 3806.25 1689C3699.62 1707.61 3552.07 1737.31 3388.34 1781.69C3060.9 1870.46 2668.71 2017.99 2409.93 2253.02L2410.61 2253.76C2669.2 2018.89 3061.2 1871.42 3388.6 1782.66C3552.29 1738.28 3699.82 1708.59 3806.42 1689.99C3859.72 1680.69 3902.79 1674.16 3932.53 1669.96C3947.41 1667.86 3958.95 1666.34 3966.77 1665.35C3970.68 1664.85 3973.66 1664.48 3975.66 1664.24C3976.67 1664.12 3977.42 1664.03 3977.93 1663.97C3978.18 1663.94 3978.37 1663.92 3978.5 1663.91C3978.56 1663.9 3978.61 1663.89 3978.64 1663.89C3978.66 1663.89 3978.67 1663.89 3978.68 1663.88C3978.69 1663.88 3978.69 1663.88 3978.64 1663.39ZM2409.93 2253.02C2112.39 2523.27 1572.13 2752.58 1106.19 2914.33C873.234 2995.2 658.878 3059.17 502.76 3102.93C424.702 3124.81 361.203 3141.64 317.22 3152.99C295.229 3158.67 278.116 3162.98 266.501 3165.87C260.694 3167.31 256.261 3168.4 253.281 3169.13C251.79 3169.5 250.663 3169.77 249.908 3169.96C249.531 3170.05 249.247 3170.12 249.057 3170.16C248.962 3170.18 248.891 3170.2 248.843 3170.21C248.819 3170.22 248.801 3170.22 248.789 3170.23C248.778 3170.23 248.772 3170.23 248.889 3170.72C249.006 3171.2 249.012 3171.2 249.024 3171.2C249.035 3171.19 249.053 3171.19 249.077 3171.18C249.125 3171.17 249.196 3171.16 249.292 3171.13C249.482 3171.09 249.766 3171.02 250.144 3170.93C250.899 3170.74 252.027 3170.47 253.518 3170.1C256.5 3169.38 260.934 3168.28 266.743 3166.84C278.36 3163.95 295.476 3159.64 317.47 3153.96C361.459 3142.6 424.964 3125.78 503.03 3103.89C659.161 3060.13 873.538 2996.15 1106.52 2915.27C1572.45 2753.52 2112.89 2524.17 2410.61 2253.76L2409.93 2253.02ZM2282.17 1817.52C2553.68 1719.39 2903.29 1654.62 3223.38 1622.05C3543.48 1589.47 3833.99 1589.08 3987.32 1619.67L3987.51 1618.69C3834.04 1588.07 3543.4 1588.47 3223.28 1621.05C2903.14 1653.63 2553.45 1718.41 2281.83 1816.58L2282.17 1817.52ZM249.149 3170.29C189.364 3133.87 145.474 3073.45 114.333 2994.87C83.1925 2916.29 64.8147 2819.57 56.0384 2710.61C38.4857 2492.69 59.3459 2225.87 93.2242 1957.36C127.102 1688.85 173.992 1418.69 208.491 1194.05C225.739 1081.74 239.89 980.802 247.766 897.157C255.64 813.526 257.247 747.128 249.381 703.91L248.397 704.09C256.236 747.158 254.644 813.434 246.77 897.063C238.898 980.677 224.75 1081.59 207.502 1193.9C173.008 1418.51 126.112 1688.71 92.2321 1957.23C58.3519 2225.76 37.4804 2492.66 55.0416 2710.69C63.8222 2819.71 82.2128 2916.53 113.404 2995.24C144.595 3073.95 188.601 3134.57 248.628 3171.14L249.149 3170.29ZM248.947 704.497C336.073 694.19 408.233 712.824 470.94 752.192C533.659 791.569 586.945 851.705 636.279 924.438C685.614 997.17 730.977 1082.46 777.869 1172.14C824.757 1261.8 873.171 1355.84 928.597 1446.02C1039.45 1626.38 1178.39 1791.38 1389.38 1875.21C1600.38 1959.04 1883.34 1961.68 2282.17 1817.52L2281.83 1816.58C1883.14 1960.69 1600.45 1957.99 1389.75 1874.28C1179.05 1790.56 1040.26 1625.78 929.449 1445.5C874.045 1355.35 825.648 1261.35 778.755 1171.67C731.866 1082.01 686.479 996.663 637.107 923.876C587.735 851.09 534.358 790.827 471.472 751.345C408.572 711.856 336.183 693.17 248.83 703.503L248.947 704.497Z" fill="url(#paint1_linear_9_16)"/>
<path fill-rule="evenodd" clip-rule="evenodd" d="M4362.17 1379.8C4362.39 1412.26 4362.62 1447.45 4356.23 1466.33L4350.35 1496.94L4115.79 1542.54L4008.61 1553.41L3901.46 1559.16C3900.64 1550.1 3898.34 1546.06 3890.09 1541.25C3871.93 1539.44 3862.7 1540.23 3849.25 1547.39L3821.13 1558.7L3818.67 1542.11L3781.67 1547L3766.17 1580.06L3765.65 1671.87L3770.45 1724.18L3785.67 1737.02L3799.66 1743.48L3817.52 1743.58L3820.18 1724.47L3820.6 1724.9C3825.57 1729.95 3828.48 1732.91 3848.16 1737.38C3860.56 1741.42 3868.94 1742.65 3885.1 1743.97C3897.75 1741.79 3899.31 1737.43 3900.49 1728.76C3986.61 1731.55 4009 1733.81 4027.95 1738.42C4092.51 1743.78 4125.44 1748.44 4180.85 1758.42L4290.38 1782.01L4355.33 1797.68C4401.17 1808.67 4423.24 1815.91 4462.26 1828.9L4543.73 1853.6C4567.49 1859.83 4578.7 1861.38 4597.24 1862.83L4798.71 1863.99L5206.75 1866.34L5329.16 1867.04C5344.74 1866.67 5352.21 1865.84 5363.61 1863.41C5376.43 1859.71 5382.76 1853.21 5391.86 1830.42C5398.25 1782.95 5399.99 1753.02 5402.81 1699.14C5407.37 1641.04 5407.15 1609.02 5403.66 1552.5C5400.85 1515.12 5397.75 1496.61 5390.12 1466.98C5384.57 1450.08 5378.98 1443.12 5366.08 1433.69L5335.51 1429.05L5311.68 1432.29L5281.28 1378.59C5236.67 1312.73 5202.1 1275.81 5156.55 1227.14C5129.37 1198.1 5098.28 1164.89 5058.81 1118.86C5064.72 1111.22 5066.21 1107.2 5053.64 1102.22C5053.79 1093.87 5050.52 1092.14 5040.71 1092.55C5042.48 1092.05 5024.72 1069.93 4997.08 1085.03C4982.9 1092.78 4974.07 1102 4967.71 1108.64C4961.67 1114.95 4957.86 1118.93 4953.81 1117.12C4931.64 1105.59 4927.99 1108.39 4921.67 1113.25L4921.35 1113.49C4887.51 1112.23 4867.13 1114.86 4829.34 1122.89C4815.73 1119.6 4808.57 1119.28 4799.63 1130.87C4789.93 1128.25 4786.58 1130.11 4782.26 1136.08C4773.87 1127.86 4766.21 1125.58 4745.87 1126.76C4750.94 1111.84 4746.89 1107.75 4731.68 1105.41C4721.18 1089.61 4697.8 1064.39 4684.76 1050.31C4680.17 1045.36 4676.86 1041.78 4675.84 1040.49C4671.94 1035.54 4672.61 1034.04 4675.26 1028.05C4676.66 1024.89 4671.33 1017.15 4666.03 1009.46C4661.27 1002.56 4656.54 995.696 4656.73 992.218C4657.12 984.863 4680.9 1007.24 4691.66 1017.75C4702.42 1028.25 4721 1001.71 4718.23 989.367C4716.74 982.73 4718.36 979.13 4719.88 975.751C4721.18 972.846 4722.42 970.104 4721.53 965.735C4720.79 962.053 4718.95 958.755 4717.32 955.826C4714.76 951.238 4712.71 947.553 4716.16 944.706C4718.42 942.836 4722.74 941.933 4727.22 940.995C4733.9 939.595 4740.95 938.12 4742.04 933.234C4743.09 928.523 4739.11 926.004 4735.5 923.729C4732.87 922.066 4730.45 920.533 4730.34 918.368C4730.23 915.98 4733.35 914.557 4736.83 912.972C4740.82 911.154 4745.27 909.121 4745.88 905.175C4746.35 902.048 4741.32 896.417 4735.6 890.005C4727.8 881.264 4718.7 871.073 4720.48 863.796C4771.07 829.302 4805.09 805.578 4717.83 806.688C4707.81 775.708 4701.18 759.923 4685.98 736.993C4577.66 738.676 4552.65 748.813 4535.82 774.037C4534.66 781.263 4535.1 795.04 4539.35 850.181L4511.46 850.006L4502.01 851.911L4498.59 857.206L4500.32 862.996L4505.79 870.08L4489.57 900.18L4475.37 910.377C4474.86 921.244 4475.9 923.396 4478.28 925.65L4448.11 939.522C4433.1 953.727 4428.08 960.321 4420.25 971.63C4409.23 985.215 4406.07 991.514 4401.14 1001.35L4401.14 1001.36C4400.69 1002.25 4400.23 1003.17 4399.74 1004.13C4387.42 1023.11 4384.43 1034.24 4380.05 1054.2C4373.9 1071.01 4373.38 1081.32 4373.37 1100C4363.98 1127.81 4363.11 1145.09 4363.72 1176.76L4364.77 1231.01C4363.54 1245.67 4364.35 1254.63 4371.13 1273.27C4362.55 1265.45 4361.04 1277.16 4361.35 1283.99C4361.34 1284.74 4361.66 1286.33 4362.07 1288.4C4363.23 1294.26 4365.15 1303.91 4362.51 1308.89C4359.11 1315.29 4360.18 1321.96 4363.36 1327.19C4361.9 1340.67 4362.03 1359.72 4362.17 1379.8ZM4703.14 1344.46L4720.53 1457.41L4983.63 1455.03C4968.9 1442.32 4948.54 1398.77 4932.4 1364.25C4925.3 1349.07 4919.02 1335.63 4914.39 1327.33L4907.07 1327.67C4906.15 1338.01 4902.21 1340.14 4892.27 1340.82C4868.93 1338.8 4855.86 1336.34 4832.65 1320.84C4829.07 1342.25 4824.6 1351.17 4810.98 1360L4769.47 1350.92L4703.14 1344.46ZM5104.77 1450.2L5004.78 1454.18C4983.82 1438.33 4956.25 1381.11 4937.55 1342.31C4932.62 1332.09 4928.31 1323.14 4924.9 1316.57L4938.13 1301.28L4948.38 1300.8C4975.05 1317.29 5002.11 1348.01 5028.4 1377.86C5055.06 1408.13 5080.92 1437.49 5104.77 1450.2ZM4996.29 1178.99C4979.55 1179.01 4972.92 1176.91 4962.94 1171.73C4955.91 1182.68 4951.89 1188.67 4943.56 1196.84C4943.45 1207.75 4941.04 1211.51 4934.16 1215.62C4880.69 1227.85 4849.79 1231.83 4792.6 1232.45C4760.8 1236.72 4743.03 1236.77 4711.58 1225.93L4712.06 1236.18C4756.51 1241.3 4779.8 1244.78 4812.68 1254.27C4827.11 1253.62 4834.5 1255.97 4845.61 1268.15C4858.44 1264.26 4867.44 1260.69 4888.1 1250.77C4905.48 1247.31 4914.44 1248.08 4928.04 1257.72C4930.96 1265.09 4933.45 1269.16 4942.83 1276.11C4945.46 1284.11 4947.38 1286.42 4951.43 1287.46C4985.68 1308.71 5017.11 1343.64 5046.51 1376.31C5074.29 1407.17 5100.24 1436.01 5125.03 1449.39L5193.08 1446.67C5166.63 1414.34 5140.26 1375.03 5113.28 1334.8C5076.07 1279.34 5037.68 1222.12 4996.29 1178.99ZM5042.85 1138.67C5043.46 1131.97 5046.24 1130.16 5053.39 1128.65C5065.89 1146.85 5091.02 1176.89 5120.42 1212.03C5126.56 1219.37 5132.88 1226.88 5139.31 1234.53C5199.33 1305.92 5268.73 1388.46 5285.88 1438.6L5248.81 1444.45L5211.46 1445.94C5184.43 1413.86 5158.34 1375.19 5131.58 1335.53C5093.08 1278.46 5053.18 1219.33 5007.11 1174.82L5031.03 1168.57C5037.16 1162.89 5036.49 1160.36 5034.85 1155.92L5043.39 1150.39C5046.72 1146.65 5047.34 1144.27 5042.85 1138.67Z" fill="url(#paint2_linear_9_16)"/>
</g>
<defs>
<linearGradient id="paint0_linear_9_16" x1="213.005" y1="2298.05" x2="3501.5" y2="2219.55" gradientUnits="userSpaceOnUse">
<stop stop-color="#099417"/>
<stop offset="1" stop-color="#3BEE4D"/>
</linearGradient>
<linearGradient id="paint1_linear_9_16" x1="85.5049" y1="2063.05" x2="3345" y2="1906.55" gradientUnits="userSpaceOnUse">
<stop stop-color="#099417"/>
<stop offset="1" stop-color="#3BEE4D"/>
</linearGradient>
<linearGradient id="paint2_linear_9_16" x1="4544.47" y1="742.882" x2="4598.16" y2="1901.03" gradientUnits="userSpaceOnUse">
<stop stop-color="#1D9329"/>
<stop offset="1" stop-color="#1ECB30"/>
</linearGradient>
<clipPath id="clip0_9_16">
<rect width="5704" height="3814" fill="white"/>
</clipPath>
</defs>
</svg>
