<svg width="4411" height="2655" viewBox="0 0 4411 2655" fill="none" xmlns="http://www.w3.org/2000/svg">
<g clip-path="url(#clip0_3_12)">
<path d="M3382.36 760.124L3382.36 790.171C3382.36 790.171 2710.72 1005.21 2433.43 1379.68C2114.4 1810.52 897.612 1921.63 897.612 1921.63C546.309 1792.95 376.095 1741.84 290.191 1524.31C735.84 1379.68 1324.75 1695.16 2292.89 1111.01C2622.54 912.105 3173.8 759.947 3382.36 760.124Z" fill="url(#paint0_linear_3_12)"/>
<path d="M3371.63 804.81L3387.12 843.538C3252.39 841.69 2820.43 997.3 2557.36 1636.25C2233.98 2421.7 1140.83 2441.04 982.211 2469.87C578.327 2433.88 482.331 2390.42 379.42 2300.71L816.146 2093.75C968.298 2066.19 1941.58 2021.1 2408.26 1426.88C2798.58 929.868 3230.68 816.104 3371.63 804.81Z" fill="url(#paint1_linear_3_12)"/>
<path d="M3387.31 777.151L3377.84 834.035C3237.35 834.575 2805.22 947.622 2472.16 1452.29C2172.7 1906.05 1052.11 2246.8 664.457 2191.65C512.679 2154.29 449.953 2107.87 378.428 1979.12C378.428 1979.12 577.652 1864.27 708.576 1821.73C839.499 1779.19 2089.82 1717.89 2300.82 1423.92C2632.85 961.344 3240.18 792.448 3387.31 777.151Z" fill="url(#paint2_linear_3_12)"/>
<path fill-rule="evenodd" clip-rule="evenodd" d="M3658.77 567.977C3662.99 589.198 3667.58 612.204 3665.76 625.374L3665.76 646.152L3517.93 705.514L3449.13 726.105L3379.7 743.353C3378.02 737.521 3376.01 735.167 3370 733.053C3357.89 734.155 3351.94 735.832 3344.04 742.211L3327.05 753.156L3323.36 742.602L3299.74 750.457L3293.76 774.054L3304.96 834.228L3314.68 867.872L3326.27 874.363L3336.24 876.83L3347.94 874.652L3347.28 861.804L3347.61 862.032C3351.5 864.715 3353.78 866.288 3367.22 866.739C3375.85 867.821 3381.49 867.573 3392.23 866.406C3400.25 863.386 3400.72 860.337 3400.4 854.509C3457.13 845.506 3472.08 844.171 3485.06 844.801C3528.01 840.193 3550.15 839.101 3587.69 838.666L3662.36 840.329L3706.85 842.424C3738.25 843.855 3753.61 845.813 3780.79 849.412L3837.24 855.334C3853.57 856.424 3861.11 856.033 3873.43 854.649L4005.48 830.066L4272.92 780.278L4353.15 765.341C4363.3 763.143 4368.09 761.658 4375.25 758.633C4383.18 754.6 4386.5 749.543 4389.59 733.48C4387.81 701.597 4385.18 681.78 4380.25 646.152C4375.93 607.544 4371.76 586.603 4362.36 550.04C4355.82 525.92 4351.46 514.188 4342.74 495.755C4336.98 485.388 4332.45 481.533 4322.82 476.982L4302.22 477.791L4287.02 482.905L4260.36 451.573C4222.87 414.066 4195.6 394.239 4159.65 368.105C4138.21 352.514 4113.67 334.679 4082.04 309.507C4084.95 303.765 4085.42 300.946 4076.56 299.267C4075.61 293.783 4073.26 293.059 4066.89 294.559C4067.98 294.01 4053.57 281.76 4037.37 295.127C4029.06 301.983 4024.44 309.129 4021.12 314.277C4017.96 319.166 4015.96 322.253 4013.08 321.578C3997.11 316.819 3995.08 319.109 3991.55 323.086L3991.37 323.283C3969.06 326.718 3956.04 331 3932.32 341.011C3922.99 340.568 3918.26 341.258 3913.87 349.974C3907.19 349.476 3905.23 351.115 3903.15 355.568C3896.62 351.241 3891.32 350.712 3878.16 354.043C3879.6 343.635 3876.43 341.469 3866.18 341.848C3857.32 332.83 3838.84 319.254 3828.53 311.68C3824.9 309.012 3822.28 307.089 3821.45 306.372C3818.28 303.618 3818.52 302.553 3819.51 298.296C3820.03 296.051 3815.56 291.655 3811.12 287.287C3807.14 283.368 3803.18 279.472 3802.87 277.171C3802.2 272.306 3820.59 283.965 3828.95 289.49C3837.32 295.016 3846.14 275.302 3842.77 267.569C3840.96 263.411 3841.57 260.85 3842.14 258.447C3842.63 256.38 3843.09 254.43 3841.97 251.681C3841.02 249.363 3839.4 247.436 3837.96 245.723C3835.71 243.041 3833.9 240.887 3835.8 238.589C3837.05 237.08 3839.76 235.945 3842.57 234.769C3846.78 233.011 3851.2 231.159 3851.3 227.823C3851.4 224.606 3848.47 223.458 3845.83 222.422C3843.9 221.664 3842.11 220.966 3841.78 219.561C3841.4 218.012 3843.27 216.688 3845.35 215.212C3847.73 213.52 3850.39 211.629 3850.29 208.97C3850.2 206.863 3846.2 203.808 3841.65 200.33C3835.44 195.59 3828.2 190.062 3828.45 185.074C3857.24 156.126 3876.53 136.315 3819.54 148.018C3809.08 128.995 3802.75 119.495 3789.92 106.394C3719.21 121.121 3704.11 130.902 3696.27 149.534C3696.41 154.411 3698.44 163.375 3708.16 198.942L3689.87 202.336L3683.93 204.772L3682.35 208.669L3684.22 212.241L3688.68 216.192L3681.86 237.938L3673.84 246.4C3674.87 253.579 3675.82 254.857 3677.67 256.034L3659.66 268.911C3651.62 280.099 3649.16 285.047 3645.45 293.437C3639.95 303.717 3638.67 308.238 3636.68 315.299L3636.68 315.302C3636.5 315.943 3636.31 316.605 3636.12 317.295C3630.44 331.271 3629.88 338.933 3629.52 352.554C3627.61 364.329 3628.57 371.149 3630.91 383.38C3628.26 402.764 3629.86 414.19 3634.25 434.846L3641.76 470.23C3642.8 479.982 3644.45 485.748 3651.24 497.098C3644.64 493.058 3645.12 500.916 3646.19 505.35C3646.27 505.839 3646.68 506.843 3647.21 508.146C3648.71 511.833 3651.17 517.914 3650.07 521.502C3648.65 526.125 3650.19 530.353 3652.93 533.379C3653.67 542.39 3656.15 554.841 3658.77 567.977ZM3877.56 501.946L3903.15 573.708L4075.1 539.057C4063.86 532.589 4045.06 506.64 4030.15 486.067C4023.59 477.02 4017.79 469.012 4013.71 464.159L4008.96 465.302C4009.66 472.189 4007.35 474.081 4000.93 475.779C3985.39 477.389 3976.53 477.419 3959.38 470.196C3959.73 484.66 3957.93 491.061 3950.12 498.558L3921.8 497.833L3877.56 501.946ZM4153.81 520.656L4088.85 535.843C4073.13 528.099 4047.88 494.108 4030.76 471.053C4026.25 464.982 4022.3 459.668 4019.24 455.793L4025.98 444.119L4032.63 442.519C4052.16 449.958 4073.75 466.67 4094.71 482.905C4115.97 499.365 4136.6 515.336 4153.81 520.656ZM4048.68 356.737C4037.72 358.856 4033.11 358.316 4025.93 356.18C4022.7 364.238 4020.82 368.66 4016.4 375.058C4017.7 382.218 4016.59 384.982 4012.6 388.536C3979.13 403.269 3959.4 409.762 3922.04 417.363C3901.76 424.16 3890.13 426.427 3868.18 423.287L3869.78 429.938C3899.53 427.694 3915.21 427.046 3937.94 429.118C3947.3 426.884 3952.43 427.493 3961.24 434.065C3969.15 429.909 3974.59 426.44 3986.87 417.344C3997.81 412.891 4003.78 412.269 4013.89 416.872C4016.73 421.325 4018.88 423.679 4025.89 427.052C4028.62 431.959 4030.17 433.229 4032.95 433.396C4058.04 443.006 4083.02 461.921 4106.37 479.61C4128.44 496.323 4149.06 511.94 4166.97 517.579L4211.18 507.243C4189.8 489.397 4167.59 466.979 4144.86 444.035C4113.53 412.404 4081.2 379.773 4048.68 356.737ZM4074.09 324.488C4073.64 320.026 4075.24 318.487 4079.73 316.598C4090.2 326.942 4110.43 343.449 4134.1 362.757C4139.04 366.789 4144.13 370.917 4149.3 375.115C4197.57 414.303 4253.39 459.611 4270.93 490.286L4247.39 498.777L4223.13 504.45C4201.4 486.846 4179.45 464.811 4156.94 442.211C4124.55 409.689 4090.99 375.996 4055.23 352.647L4070.11 345.549C4073.41 341.057 4072.65 339.485 4071.02 336.787L4075.92 332.09C4077.62 329.227 4077.73 327.585 4074.09 324.488Z" fill="url(#paint3_linear_3_12)"/>
</g>
<defs>
<linearGradient id="paint0_linear_3_12" x1="349.181" y1="1643.9" x2="3531.08" y2="1080.82" gradientUnits="userSpaceOnUse">
<stop stop-color="#1D9329"/>
<stop offset="1" stop-color="#31D641"/>
</linearGradient>
<linearGradient id="paint1_linear_3_12" x1="604.971" y1="2366.39" x2="3576.26" y2="1283.33" gradientUnits="userSpaceOnUse">
<stop stop-color="#52F763"/>
<stop offset="1" stop-color="#00E817"/>
</linearGradient>
<linearGradient id="paint2_linear_3_12" x1="356.617" y1="1998.95" x2="3491.63" y2="1199.03" gradientUnits="userSpaceOnUse">
<stop stop-color="#67EA00"/>
<stop offset="1" stop-color="#60CE09"/>
</linearGradient>
<linearGradient id="paint3_linear_3_12" x1="3698.01" y1="128.048" x2="3878.84" y2="879.544" gradientUnits="userSpaceOnUse">
<stop stop-color="#1D9329"/>
<stop offset="1" stop-color="#1ECB30"/>
</linearGradient>
<clipPath id="clip0_3_12">
<rect width="4410.75" height="2655" fill="white"/>
</clipPath>
</defs>
</svg>
