<svg width="4411" height="2655" viewBox="0 0 4411 2655" fill="none" xmlns="http://www.w3.org/2000/svg">
<g clip-path="url(#clip0_3_14)">
<g filter="url(#filter0_dd_3_14)">
<path d="M1422 857.361L1421.96 869.565C1420.31 879.323 1417.43 891.926 1413.31 907.372C1409.2 922.005 1404.28 937.45 1398.54 953.705C1393.61 969.149 1388.28 984.999 1382.54 1001.25C1376.8 1016.7 1371.47 1030.11 1366.56 1041.48C1389.31 1048.87 1406.78 1059.5 1418.94 1073.36C1431.11 1086.41 1440.83 1100.68 1448.11 1116.16C1455.39 1131.64 1461.44 1147.93 1466.27 1165.03C1471.11 1182.13 1476.76 1198.01 1483.22 1212.67C1489.69 1227.33 1501.03 1243.23 1517.26 1260.36C1533.48 1276.68 1548.07 1296.66 1561.02 1320.29C1567.5 1331.7 1571.52 1345.54 1573.1 1361.82C1574.68 1378.09 1578.71 1392.34 1585.19 1404.56C1591.64 1422.48 1598.93 1436.33 1607.03 1446.12C1615.96 1455.1 1621.22 1464.87 1622.81 1475.45C1622.8 1480.34 1623.19 1484.81 1624 1488.88C1624.8 1492.95 1625.19 1497.43 1625.18 1502.31C1625.13 1521.02 1622.63 1540.14 1617.69 1559.65C1613.57 1579.16 1608.22 1598.67 1601.66 1618.18C1595.09 1637.69 1588.53 1657.6 1581.96 1677.92C1575.4 1697.43 1570.46 1717.35 1567.15 1737.68C1565.5 1745.81 1564.66 1755.16 1564.63 1765.74C1564.6 1775.5 1564.57 1785.67 1564.54 1796.25C1564.51 1806.83 1564.07 1817 1563.23 1826.76C1562.39 1836.52 1561.14 1845.06 1559.5 1852.37C1555.37 1872.7 1547.17 1894.65 1534.9 1918.21C1522.63 1941.76 1510.77 1964.1 1499.32 1985.23C1482.14 2016.91 1466.6 2043.71 1452.71 2065.64C1439.63 2086.75 1423.72 2104.2 1404.97 2117.98C1387.03 2130.94 1364.22 2140.23 1336.54 2145.85C1308.87 2151.47 1272.25 2154.21 1226.68 2154.08C1186.01 2153.96 1144.52 2151.81 1102.22 2147.62C1060.74 2142.62 1021.3 2136 983.902 2127.76C979.788 2144.02 974.034 2164.34 966.642 2188.73C960.063 2213.11 952.268 2236.28 943.256 2258.22C935.055 2280.98 925.643 2300.07 915.023 2315.5C904.399 2331.74 892.986 2339.84 880.782 2339.81C875.9 2339.79 870.617 2338.15 864.931 2334.88C860.059 2331.61 853.562 2327.53 845.44 2322.62C832.443 2315.26 820.671 2306.69 810.122 2296.89C799.573 2287.1 791.065 2275.28 784.595 2261.43C778.124 2248.39 774.1 2232.92 772.524 2215.02C770.951 2196.3 772.235 2173.93 776.378 2147.91C778.856 2134.9 781.333 2122.29 783.808 2110.1C787.098 2097.9 791.202 2085.3 796.121 2072.3C770.121 2060.02 749.412 2046.94 733.993 2033.07C718.574 2019.19 705.198 2002.48 693.864 1982.92C682.529 1963.36 672.021 1939.33 662.34 1910.83C652.658 1882.32 640.963 1846.9 627.253 1804.55C619.993 1782.56 612.326 1760.98 604.251 1739.8C596.989 1718.63 590.541 1697.46 584.906 1676.29C579.274 1654.3 574.861 1632.73 571.667 1611.57C568.476 1589.59 567.32 1567.22 568.199 1544.44C568.236 1531.42 569.092 1516.37 570.769 1499.29C573.261 1481.4 576.158 1463.91 579.462 1446.84C582.767 1428.95 586.476 1412.28 590.588 1396.83C594.703 1380.57 599.215 1367.57 604.124 1357.82C608.22 1348.07 612.718 1339.95 617.618 1333.45C623.332 1326.96 628.639 1320.47 633.539 1313.97C638.439 1307.48 642.526 1300.98 645.799 1294.48C649.072 1287.98 650.723 1279.85 650.75 1270.09C650.771 1262.76 649.975 1256.66 648.362 1251.77C646.751 1246.07 644.732 1240.78 642.306 1235.89C639.879 1231 637.859 1226.11 636.246 1221.23C634.635 1215.53 633.839 1209.42 633.857 1202.92C633.855 1203.73 635.495 1199.26 638.777 1189.51C642.873 1179.75 648.195 1167.97 654.744 1154.16C661.294 1139.53 669.068 1124.1 678.064 1107.85C687.876 1090.79 698.09 1075.37 708.706 1061.56C720.138 1046.95 732.377 1034.78 745.422 1025.06C759.281 1015.33 773.126 1010.49 786.957 1010.53L824.789 1010.64C836.179 1010.67 850.007 1011.93 866.272 1014.42C882.536 1016.91 900.022 1019.4 918.727 1021.89C938.246 1024.39 958.579 1026.89 979.725 1029.39C1001.69 1031.89 1023.24 1033.18 1044.4 1033.24C1078.57 1033.33 1113.15 1032.62 1148.13 1031.09C1183.12 1029.57 1216.89 1028.04 1249.44 1026.5L1264.19 988.712C1274.02 965.146 1282.63 942.39 1290.02 920.444C1297.4 897.684 1304.78 877.772 1312.16 860.708C1320.34 843.646 1329.33 829.84 1339.12 819.292C1348.92 808.743 1361.54 803.898 1377 804.756C1390.01 804.793 1400.98 809.706 1409.9 819.494C1419.64 829.285 1423.67 841.908 1422 857.361ZM1063.32 1243.2C1053.56 1243.17 1043.39 1242.73 1032.81 1241.89C1022.24 1241.05 1011.66 1240.61 1001.09 1240.58C972.612 1240.5 949.407 1246.53 931.473 1258.69C913.542 1270.02 899.665 1285.85 889.844 1306.16C880.025 1325.66 873.043 1348.83 868.898 1375.66C865.567 1402.5 863.858 1430.97 863.772 1461.08C863.66 1500.13 864.788 1532.68 867.154 1558.72C870.334 1584.76 875.153 1606.34 881.613 1623.44C888.073 1640.54 896.169 1654.4 905.902 1665C915.637 1674.79 927.816 1683.37 942.44 1690.74C952.189 1695.65 960.725 1698.11 968.047 1698.13C974.595 1684.32 980.738 1670.1 986.475 1655.47C992.214 1640.03 997.548 1624.18 1002.48 1607.92C1009.03 1590.85 1014.37 1573.38 1018.49 1555.49C1022.61 1536.79 1029.17 1519.32 1038.17 1503.07C1043.08 1490.88 1049.63 1478.69 1057.8 1466.51C1066.78 1454.34 1074.55 1440.93 1081.1 1426.31L1103.29 1348.27L1148.77 1233.68C1133.31 1236.08 1118.66 1238.48 1104.82 1240.88C1090.98 1242.46 1077.15 1243.24 1063.32 1243.2ZM1330.97 1536.86C1332.64 1520.59 1334.33 1499.04 1336.03 1472.19C1337.74 1444.54 1338.63 1417.69 1338.7 1391.65C1338.73 1383.52 1337.94 1374.16 1336.34 1363.58C1335.56 1353 1333.56 1342.01 1330.34 1330.61C1327.11 1319.21 1322.26 1308.21 1315.79 1297.62C1309.31 1286.21 1301.2 1276.02 1291.47 1267.04L1284.09 1286.54C1275.06 1312.55 1262.78 1341.4 1247.23 1373.09C1231.68 1403.96 1216.13 1437.68 1200.56 1474.25C1186.62 1511.63 1172.67 1553.49 1158.71 1599.83C1144.75 1646.16 1129.96 1694.93 1114.36 1746.15C1129.81 1748.63 1141.59 1754.36 1149.7 1763.33C1158.62 1772.31 1167.15 1776.81 1175.29 1776.83C1177.73 1776.02 1185.88 1771.98 1199.73 1764.7C1214.4 1757.42 1229.88 1749.32 1246.18 1740.42C1262.48 1730.71 1277.15 1721.8 1290.19 1713.7C1304.04 1705.6 1311.38 1700.74 1312.19 1699.12C1316.28 1692.62 1319.16 1682.46 1320.82 1668.63C1323.31 1653.99 1324.98 1638.54 1325.84 1622.27C1327.51 1606 1328.37 1590.14 1328.42 1574.68C1329.27 1559.23 1330.12 1546.62 1330.97 1536.86ZM2519.5 1957.64C2521.1 1964.15 2521.9 1969.85 2521.89 1974.73C2521.87 1979.61 2521.86 1984.09 2521.85 1988.15C2521.8 2006.87 2518.09 2023.13 2510.73 2036.94C2503.36 2050.75 2496 2064.96 2488.64 2079.59C2484.55 2086.9 2480.45 2096.65 2476.35 2108.84C2472.25 2121.03 2466.92 2132.82 2460.38 2144.19C2453.84 2154.75 2445.68 2164.08 2435.9 2172.19C2426.92 2180.3 2415.93 2184.33 2402.91 2184.3C2388.27 2184.25 2371.18 2183.39 2351.66 2181.71C2332.14 2180.03 2314.24 2179.16 2297.97 2179.11C2278.45 2179.06 2254.85 2180.21 2227.18 2182.57C2199.51 2184.93 2170.62 2186.07 2140.52 2185.99L2116.11 2185.92C2085.2 2185.83 2054.68 2188.59 2024.56 2194.2C1994.44 2198.99 1968.4 2201.36 1946.43 2201.29C1935.86 2201.26 1924.07 2198.38 1911.07 2192.65C1898.88 2186.92 1887.51 2179.16 1876.96 2169.37C1866.42 2158.76 1857.51 2145.72 1850.23 2130.24C1842.95 2114.76 1839.34 2097.25 1839.39 2077.73C1839.44 2060.64 1845.99 2048.05 1859.03 2039.95C1872.07 2031.04 1886.33 2022.95 1901.81 2015.67C1918.1 2008.39 1932.77 2000.3 1945.82 1991.39C1959.67 1981.66 1966.63 1968.26 1966.68 1951.17C1966.72 1934.9 1965.15 1916.59 1961.95 1896.24C1958.76 1875.89 1955.16 1855.13 1951.15 1833.97C1947.96 1811.99 1944.76 1790.42 1941.57 1769.26C1938.38 1747.29 1936.81 1726.94 1936.86 1708.23C1936.95 1678.13 1937.44 1648.02 1938.34 1617.92C1939.24 1587.82 1939.74 1557.32 1939.82 1526.4C1940.06 1442.6 1937.84 1365.71 1933.16 1295.73C1929.3 1224.93 1925.02 1157.8 1920.32 1094.32C1915.62 1030.04 1910.92 966.97 1906.21 905.123C1902.32 842.465 1900.48 776.965 1900.67 708.624C1900.75 680.962 1903.26 656.154 1908.21 634.201C1913.15 612.249 1922.16 593.562 1935.22 578.141C1949.09 562.722 1968.25 550.98 1992.68 542.914C2017.92 534.037 2050.48 529.655 2090.35 529.769C2131.03 529.886 2164.78 534.05 2191.6 542.263C2219.24 550.478 2241.17 563.152 2257.4 580.284C2274.43 596.604 2286.58 617.793 2293.83 643.849C2301.08 669.091 2304.65 699.204 2304.55 734.188C2304.46 765.918 2302.34 796.422 2298.19 825.699C2294.04 854.163 2291.91 885.481 2291.81 919.651L2291.62 986.772C2291.56 1007.11 2290.29 1027.45 2287.79 1047.78C2285.29 1068.11 2282.38 1089.26 2279.06 1111.22C2275.75 1132.36 2272.84 1154.32 2270.33 1177.09C2267.83 1199.05 2266.54 1222.24 2266.47 1246.64C2266.28 1312.54 2268.53 1380.08 2273.21 1449.25C2277.9 1518.42 2280.13 1589.21 2279.93 1661.62C2279.72 1733.21 2279.97 1787.32 2280.68 1823.93C2282.2 1860.55 2291.1 1878.88 2307.37 1878.92C2319.58 1878.96 2333.82 1876.56 2350.11 1871.72C2366.39 1866.89 2381.86 1864.49 2396.5 1864.53C2424.97 1866.24 2450.99 1874.45 2474.54 1889.17C2498.09 1903.88 2513.08 1926.7 2519.5 1957.64ZM3856.3 2166.49C3856.26 2180.32 3852.97 2193.33 3846.43 2205.52C3840.7 2217.7 3833.34 2228.26 3824.37 2237.18C3815.39 2246.11 3805.61 2252.99 3795.02 2257.84C3784.43 2263.51 3774.66 2266.33 3765.71 2266.3C3746.18 2266.25 3723.41 2263.74 3697.39 2258.79C3672.18 2253.83 3646.96 2251.32 3621.74 2251.25C3578.62 2251.12 3530.62 2253.02 3477.72 2256.94C3424.82 2261.67 3373.15 2266.4 3322.69 2271.14C3272.23 2275.87 3226.25 2280.22 3184.75 2284.17C3144.06 2288.93 3114.76 2291.29 3096.86 2291.24C3081.4 2291.19 3065.54 2290.33 3049.27 2288.66C3033.82 2286.99 3018.77 2286.13 3004.13 2286.09C2967.51 2285.98 2936.18 2289.96 2910.12 2298.02C2884.87 2306.9 2863.71 2311.32 2846.62 2311.27C2824.66 2308.76 2805.56 2303.01 2789.31 2294.02C2773.88 2285.84 2760.49 2274.82 2749.14 2260.95C2737.78 2247.9 2727.25 2233.23 2717.53 2216.93C2708.63 2199.82 2700.14 2181.89 2692.06 2163.16C2687.2 2153.38 2681.95 2142.79 2676.28 2131.38C2670.62 2119.98 2665.37 2108.16 2660.52 2095.95C2655.68 2082.91 2651.64 2069.88 2648.43 2056.86C2644.4 2043.02 2642.4 2029.18 2642.44 2015.35C2642.51 1991.75 2647.85 1973.46 2658.47 1960.48C2669.08 1947.49 2682.53 1936.95 2698.83 1928.86C2715.12 1920.77 2733.04 1913.5 2752.59 1907.05C2772.14 1899.78 2790.47 1890.07 2807.59 1877.92C2835.31 1859.28 2860.99 1838.61 2884.65 1815.9C2908.31 1792.37 2931.17 1767.62 2953.21 1741.65C2976.06 1715.68 2998.92 1688.9 3021.78 1661.3C3045.45 1633.71 3070.35 1605.71 3096.46 1577.31C3107.89 1564.32 3121.75 1553.38 3138.05 1544.47C3155.16 1534.76 3169.44 1523 3180.87 1509.21C3187.4 1501.9 3193.12 1491.34 3198.04 1477.53C3202.96 1463.71 3209.92 1451.12 3218.9 1439.75C3227.06 1429.2 3238.09 1415.4 3251.97 1398.35C3266.66 1380.5 3280.95 1362.64 3294.83 1344.78C3308.72 1326.92 3320.56 1309.87 3330.37 1293.62C3340.99 1277.38 3346.32 1265.19 3346.34 1257.06C3346.36 1250.55 3339.86 1247.28 3326.84 1247.24C3319.52 1247.22 3309.76 1247.6 3297.55 1248.38C3286.16 1249.16 3273.55 1249.53 3259.72 1249.49C3247.51 1249.45 3233.68 1248.6 3218.23 1246.93C3202.78 1244.44 3186.11 1241.96 3168.21 1239.46C3150.32 1236.97 3132.02 1234.88 3113.31 1233.2C3094.61 1230.71 3075.9 1229.44 3057.19 1229.38C3031.97 1229.31 3005.52 1231.67 2977.84 1236.48C2950.17 1241.28 2922.5 1243.64 2894.83 1243.56C2881 1243.52 2867.58 1242.26 2854.57 1239.79C2841.56 1237.31 2830.19 1232.39 2820.44 1225.04C2810.7 1216.88 2802.6 1205.47 2796.13 1190.8C2790.48 1175.33 2787.7 1154.57 2787.77 1128.54C2788.63 1110.64 2796.01 1093.58 2809.88 1077.35C2823.76 1060.3 2841.3 1045.71 2862.49 1033.56C2883.68 1020.6 2907.71 1010.5 2934.58 1003.26C2961.45 995.199 2989.12 991.211 3017.6 991.292C3042.82 991.364 3071.7 993.074 3104.23 996.422C3136.76 999.769 3169.7 1003.52 3203.05 1007.69C3236.4 1011.04 3268.12 1014.38 3298.21 1017.72C3329.12 1021.07 3355.55 1022.77 3377.52 1022.83C3395.42 1022.88 3414.95 1022.13 3436.11 1020.56C3457.27 1018.99 3478.83 1017.43 3500.8 1015.86C3523.59 1014.3 3545.96 1012.74 3567.94 1011.17C3589.91 1009.61 3610.66 1008.86 3630.18 1008.91C3652.15 1008.97 3668.42 1009.43 3678.99 1010.27C3689.57 1011.12 3698.51 1014.4 3705.82 1020.11C3713.94 1025.02 3722.05 1033.18 3730.15 1044.59C3738.26 1056 3750.41 1072.31 3766.62 1093.51C3773.92 1103.29 3782.84 1113.9 3793.38 1125.32C3803.93 1135.92 3814.06 1147.75 3823.79 1160.79C3833.52 1173.03 3841.62 1186.47 3848.08 1201.14C3855.37 1214.99 3858.99 1229.24 3858.94 1243.88C3858.89 1262.59 3851.51 1283.32 3836.8 1306.06C3822.9 1328.8 3805.75 1352.34 3785.34 1376.69C3765.75 1400.23 3745.34 1422.95 3724.13 1444.86C3703.72 1466.77 3686.99 1486.25 3673.92 1503.3C3657.59 1524.4 3641.66 1546.32 3626.14 1569.06C3610.62 1590.98 3595.5 1612.5 3580.8 1633.61C3574.26 1643.36 3565.29 1652.28 3553.87 1660.38C3543.27 1668.49 3534.7 1677.82 3528.16 1688.38C3520.81 1698.12 3515.49 1710.72 3512.19 1726.16C3509.71 1740.8 3503.98 1753.8 3494.99 1765.17C3487.64 1775.72 3477.45 1784.64 3464.41 1791.93C3452.18 1799.22 3442.4 1807.73 3435.05 1817.47C3421.17 1832.89 3408.51 1848.72 3397.08 1864.96C3385.64 1880.38 3374.21 1896.62 3362.77 1913.68C3352.14 1929.92 3341.11 1947.38 3329.67 1966.06C3319.04 1984.74 3307.18 2005.05 3294.1 2026.98C3319.31 2031.93 3344.11 2036.48 3368.51 2040.61C3392.9 2044.75 3417.3 2048.48 3441.7 2051.81C3466.1 2054.32 3491.31 2056.42 3517.34 2058.13C3543.37 2059.83 3570.63 2060.72 3599.1 2060.8C3610.49 2060.83 3621.07 2060.46 3630.83 2059.67C3641.41 2058.89 3652.4 2058.51 3663.79 2058.55C3690.64 2058.62 3715.85 2060.73 3739.44 2064.86C3763.02 2069 3783.34 2075.57 3800.4 2084.56C3818.27 2092.75 3832.07 2103.77 3841.8 2117.63C3851.52 2130.68 3856.36 2146.96 3856.3 2166.49Z" fill="url(#paint0_linear_3_14)"/>
</g>
</g>
<defs>
<filter id="filter0_dd_3_14" x="564.703" y="525.415" width="3396.13" height="1965.56" filterUnits="userSpaceOnUse" color-interpolation-filters="sRGB">
<feFlood flood-opacity="0" result="BackgroundImageFix"/>
<feColorMatrix in="SourceAlpha" type="matrix" values="0 0 0 0 0 0 0 0 0 0 0 0 0 0 0 0 0 0 127 0" result="hardAlpha"/>
<feOffset dx="99.8537" dy="142.648"/>
<feComposite in2="hardAlpha" operator="out"/>
<feColorMatrix type="matrix" values="0 0 0 0 0.505917 0 0 0 0 1 0 0 0 0 0.495833 0 0 0 1 0"/>
<feBlend mode="normal" in2="BackgroundImageFix" result="effect1_dropShadow_3_14"/>
<feColorMatrix in="SourceAlpha" type="matrix" values="0 0 0 0 0 0 0 0 0 0 0 0 0 0 0 0 0 0 127 0" result="hardAlpha"/>
<feOffset dx="65" dy="51"/>
<feComposite in2="hardAlpha" operator="out"/>
<feColorMatrix type="matrix" values="0 0 0 0 1 0 0 0 0 1 0 0 0 0 1 0 0 0 1 0"/>
<feBlend mode="normal" in2="effect1_dropShadow_3_14" result="effect2_dropShadow_3_14"/>
<feBlend mode="normal" in="SourceGraphic" in2="effect2_dropShadow_3_14" result="shape"/>
</filter>
<linearGradient id="paint0_linear_3_14" x1="2209" y1="6.1231" x2="2201.13" y2="2753.88" gradientUnits="userSpaceOnUse">
<stop stop-color="#2A7131"/>
<stop offset="1" stop-color="#01B013"/>
</linearGradient>
<clipPath id="clip0_3_14">
<rect width="4410.75" height="2655" fill="white"/>
</clipPath>
</defs>
</svg>
