<svg width="4411" height="2655" viewBox="0 0 4411 2655" fill="none" xmlns="http://www.w3.org/2000/svg">
    <g clip-path="url(#clip0_3_14)">
        <path
            d="M1200.9 657.416L1200.85 673.067C1198.73 685.582 1195.03 701.745 1189.76 721.554C1184.48 740.321 1178.17 760.128 1170.8 780.975C1164.49 800.782 1157.65 821.109 1150.28 841.957C1142.92 861.761 1136.09 878.957 1129.79 893.547C1158.98 903.022 1181.37 916.65 1196.97 934.433C1212.57 951.173 1225.04 969.468 1234.38 989.32C1243.71 1009.17 1251.48 1030.06 1257.67 1051.99C1263.87 1073.92 1271.12 1094.29 1279.41 1113.09C1287.71 1131.9 1302.25 1152.29 1323.06 1174.26C1343.87 1195.19 1362.58 1220.8 1379.19 1251.11C1387.49 1265.74 1392.66 1283.5 1394.68 1304.37C1396.71 1325.24 1401.88 1343.52 1410.18 1359.19C1418.46 1382.17 1427.8 1399.94 1438.2 1412.49C1449.64 1424 1456.39 1436.54 1458.44 1450.11C1458.42 1456.37 1458.92 1462.11 1459.95 1467.33C1460.98 1472.55 1461.49 1478.29 1461.47 1484.55C1461.4 1508.55 1458.2 1533.06 1451.87 1558.09C1446.58 1583.11 1439.72 1608.14 1431.31 1633.15C1422.89 1658.17 1414.47 1683.71 1406.04 1709.77C1397.62 1734.79 1391.29 1760.34 1387.04 1786.41C1384.93 1796.84 1383.85 1808.83 1383.81 1822.4C1383.77 1834.92 1383.74 1847.96 1383.7 1861.53C1383.66 1875.09 1383.1 1888.13 1382.02 1900.65C1380.94 1913.17 1379.34 1924.12 1377.23 1933.5C1371.94 1959.57 1361.42 1987.72 1345.69 2017.93C1329.95 2048.15 1314.74 2076.8 1300.05 2103.88C1278.02 2144.51 1258.1 2178.89 1240.28 2207.01C1223.51 2234.09 1203.1 2256.47 1179.05 2274.14C1156.05 2290.76 1126.8 2302.68 1091.3 2309.88C1055.8 2317.08 1008.84 2320.6 950.407 2320.43C898.236 2320.29 845.029 2317.52 790.787 2312.15C737.591 2305.74 687.009 2297.25 639.042 2286.68C633.765 2307.53 626.387 2333.59 616.906 2364.87C608.469 2396.15 598.472 2425.86 586.913 2454C576.396 2483.18 564.326 2507.67 550.705 2527.45C537.081 2548.28 522.443 2558.67 506.792 2558.63C500.532 2558.61 493.755 2556.51 486.463 2552.31C480.215 2548.12 471.882 2542.88 461.466 2536.59C444.799 2527.15 429.7 2516.15 416.172 2503.59C402.643 2491.03 391.731 2475.87 383.434 2458.11C375.135 2441.39 369.975 2421.55 367.954 2398.59C365.935 2374.58 367.583 2345.89 372.895 2312.52C376.073 2295.83 379.25 2279.67 382.425 2264.03C386.644 2248.39 391.907 2232.23 398.215 2215.55C364.871 2199.81 338.312 2183.04 318.538 2165.24C298.763 2147.45 281.608 2126.01 267.072 2100.92C252.536 2075.84 239.06 2045.02 226.644 2008.47C214.227 1971.91 199.228 1926.48 181.645 1872.17C172.335 1843.97 162.502 1816.29 152.145 1789.13C142.832 1761.98 134.563 1734.83 127.337 1707.68C120.113 1679.48 114.454 1651.82 110.358 1624.68C106.265 1596.49 104.782 1567.79 105.909 1538.58C105.957 1521.89 107.055 1502.59 109.205 1480.68C112.401 1457.73 116.117 1435.31 120.354 1413.41C124.593 1390.47 129.35 1369.09 134.623 1349.28C139.9 1328.43 145.687 1311.75 151.983 1299.25C157.236 1286.74 163.005 1276.32 169.289 1267.99C176.617 1259.67 183.423 1251.34 189.707 1243.01C195.992 1234.68 201.233 1226.35 205.43 1218.01C209.628 1209.68 211.745 1199.25 211.78 1186.73C211.807 1177.34 210.786 1169.51 208.717 1163.24C206.652 1155.93 204.062 1149.14 200.95 1142.87C197.838 1136.6 195.247 1130.34 193.178 1124.07C191.112 1116.76 190.091 1108.93 190.115 1100.58C190.112 1101.63 192.216 1095.89 196.425 1083.39C201.678 1070.88 208.504 1055.77 216.902 1038.06C225.303 1019.3 235.272 999.502 246.809 978.666C259.393 956.79 272.492 937.003 286.108 919.304C300.769 900.564 316.465 884.958 333.196 872.484C350.969 860.014 368.725 853.805 386.463 853.855L434.982 853.994C449.59 854.036 467.324 855.652 488.183 858.842C509.042 862.032 531.467 865.227 555.456 868.426C580.489 871.628 606.565 874.832 633.685 878.04C661.848 881.251 689.494 882.896 716.623 882.973C760.446 883.099 804.794 882.182 849.667 880.224C894.54 878.266 937.848 876.303 979.59 874.336L998.51 825.871C1011.12 795.648 1022.16 766.463 1031.63 738.318C1041.1 709.129 1050.57 683.593 1060.02 661.708C1070.52 639.826 1082.05 622.121 1094.61 608.592C1107.17 595.064 1123.36 588.85 1143.18 589.95C1159.87 589.998 1173.94 596.299 1185.38 608.852C1197.87 621.409 1203.04 637.597 1200.9 657.416ZM740.894 1152.25C728.373 1152.21 715.332 1151.65 701.771 1150.57C688.209 1149.49 674.646 1148.93 661.082 1148.89C624.562 1148.78 594.803 1156.52 571.803 1172.11C548.806 1186.65 531.01 1206.95 518.414 1233C505.821 1258 496.867 1287.71 491.551 1322.13C487.279 1356.55 485.088 1393.07 484.977 1431.67C484.834 1481.76 486.279 1523.5 489.314 1556.89C493.392 1590.3 499.573 1617.96 507.858 1639.9C516.142 1661.84 526.526 1679.6 539.008 1693.2C551.493 1705.76 567.113 1716.76 585.867 1726.21C598.37 1732.5 609.317 1735.66 618.708 1735.69C627.106 1717.98 634.984 1699.74 642.342 1680.98C649.702 1661.17 656.543 1640.85 662.863 1620C671.273 1598.11 678.12 1575.7 683.402 1552.75C688.688 1528.77 697.1 1506.36 708.637 1485.53C714.942 1469.89 723.334 1454.27 733.813 1438.64C745.336 1423.03 755.297 1405.84 763.699 1387.08L792.158 1286.99L850.488 1140.04C830.655 1143.11 811.864 1146.19 794.117 1149.27C776.373 1151.3 758.632 1152.3 740.894 1152.25ZM1084.14 1528.86C1086.29 1508 1088.46 1480.35 1090.64 1445.93C1092.83 1410.46 1093.97 1376.03 1094.07 1342.64C1094.1 1332.2 1093.09 1320.2 1091.04 1306.63C1090.04 1293.06 1087.47 1278.97 1083.34 1264.35C1079.21 1249.73 1072.99 1235.63 1064.68 1222.04C1056.37 1207.41 1045.97 1194.33 1033.49 1182.82L1024.02 1207.84C1012.45 1241.19 996.693 1278.19 976.752 1318.83C956.814 1358.42 936.865 1401.66 916.906 1448.56C899.03 1496.51 881.138 1550.19 863.23 1609.61C845.321 1669.04 826.361 1731.59 806.348 1797.27C826.163 1800.45 841.272 1807.8 851.673 1819.31C863.118 1830.82 874.057 1836.59 884.492 1836.62C887.625 1835.59 898.074 1830.4 915.839 1821.06C934.647 1811.72 954.502 1801.34 975.403 1789.93C996.307 1777.47 1015.12 1766.04 1031.85 1755.65C1049.61 1745.27 1059.02 1739.04 1060.07 1736.95C1065.31 1728.62 1069 1715.59 1071.14 1697.86C1074.32 1679.09 1076.47 1659.27 1077.57 1638.4C1079.72 1617.54 1080.82 1597.2 1080.88 1577.37C1081.98 1557.55 1083.07 1541.38 1084.14 1528.86ZM2608.42 2068.5C2610.48 2076.85 2611.5 2084.16 2611.48 2090.42C2611.47 2096.68 2611.45 2102.42 2611.43 2107.64C2611.37 2131.64 2606.61 2152.49 2597.17 2170.2C2587.73 2187.91 2578.28 2206.15 2568.84 2224.9C2563.6 2234.28 2558.34 2246.78 2553.08 2262.42C2547.82 2278.06 2540.99 2293.17 2532.6 2307.75C2524.22 2321.29 2513.75 2333.26 2501.2 2343.66C2489.69 2354.06 2475.59 2359.24 2458.9 2359.19C2440.11 2359.13 2418.21 2358.03 2393.17 2355.87C2368.13 2353.71 2345.18 2352.6 2324.31 2352.54C2299.27 2352.47 2269.01 2353.95 2233.52 2356.98C2198.04 2360.01 2160.99 2361.46 2122.39 2361.35L2091.08 2361.26C2051.43 2361.15 2012.3 2364.69 1973.67 2371.88C1935.04 2378.03 1901.65 2381.07 1873.47 2380.99C1859.91 2380.95 1844.79 2377.25 1828.12 2369.9C1812.49 2362.55 1797.91 2352.6 1784.38 2340.04C1770.85 2326.44 1759.42 2309.71 1750.09 2289.86C1740.76 2270.01 1736.12 2247.56 1736.2 2222.52C1736.26 2200.6 1744.65 2184.46 1761.38 2174.07C1778.1 2162.64 1796.39 2152.26 1816.25 2142.92C1837.14 2133.59 1855.95 2123.21 1872.68 2111.78C1890.45 2099.31 1899.37 2082.12 1899.43 2060.21C1899.49 2039.34 1897.47 2015.86 1893.38 1989.76C1889.28 1963.66 1884.66 1937.04 1879.52 1909.9C1875.43 1881.72 1871.33 1854.05 1867.23 1826.91C1863.14 1798.73 1861.13 1772.64 1861.2 1748.64C1861.31 1710.03 1861.94 1671.43 1863.1 1632.82C1864.25 1594.22 1864.88 1555.1 1865 1515.45C1865.3 1407.97 1862.46 1309.36 1856.45 1219.61C1851.5 1128.82 1846 1042.72 1839.98 961.317C1833.95 878.869 1827.92 797.987 1821.89 718.669C1816.9 638.312 1814.53 554.309 1814.79 466.663C1814.89 431.187 1818.11 399.371 1824.45 371.217C1830.79 343.063 1842.34 319.097 1859.09 299.32C1876.88 279.546 1901.45 264.487 1932.78 254.142C1965.16 242.758 2006.91 237.138 2058.04 237.285C2110.21 237.434 2153.5 242.775 2187.9 253.308C2223.34 263.844 2251.47 280.097 2272.28 302.069C2294.13 323 2309.7 350.173 2319 383.589C2328.29 415.962 2332.88 454.582 2332.75 499.449C2332.63 540.142 2329.91 579.262 2324.59 616.81C2319.27 653.315 2316.54 693.479 2316.42 737.302L2316.17 823.384C2316.1 849.469 2314.46 875.55 2311.25 901.626C2308.05 927.703 2304.32 954.821 2300.06 982.981C2295.81 1010.1 2292.08 1038.26 2288.87 1067.47C2285.65 1095.63 2284 1125.36 2283.91 1156.66C2283.67 1241.18 2286.55 1327.79 2292.56 1416.5C2298.57 1505.21 2301.44 1596 2301.17 1688.86C2300.91 1780.68 2301.23 1850.07 2302.14 1897.02C2304.09 1943.98 2315.5 1967.49 2336.37 1967.55C2352.02 1967.6 2370.29 1964.52 2391.18 1958.32C2412.06 1952.12 2431.9 1949.05 2450.68 1949.1C2487.19 1951.29 2520.55 1961.82 2550.76 1980.69C2580.96 1999.56 2600.18 2028.83 2608.42 2068.5ZM4322.85 2336.35C4322.8 2354.09 4318.57 2370.77 4310.18 2386.4C4302.83 2402.03 4293.4 2415.57 4281.89 2427.01C4270.38 2438.46 4257.84 2447.29 4244.25 2453.51C4230.67 2460.78 4218.14 2464.39 4206.66 2464.36C4181.62 2464.29 4152.41 2461.08 4119.04 2454.72C4086.71 2448.37 4054.38 2445.14 4022.03 2445.05C3966.73 2444.89 3905.16 2447.32 3837.32 2452.35C3769.48 2458.41 3703.21 2464.48 3638.5 2470.56C3573.79 2476.63 3514.82 2482.2 3461.59 2487.27C3409.4 2493.38 3371.83 2496.4 3348.88 2496.34C3329.05 2496.28 3308.71 2495.18 3287.85 2493.03C3268.03 2490.89 3248.73 2489.79 3229.94 2489.74C3182.99 2489.6 3142.8 2494.7 3109.39 2505.04C3077.01 2516.43 3049.86 2522.09 3027.95 2522.03C2999.79 2518.81 2975.29 2511.44 2954.45 2499.9C2934.66 2489.41 2917.48 2475.28 2902.92 2457.5C2888.36 2440.76 2874.85 2421.94 2862.39 2401.04C2850.98 2379.09 2840.09 2356.11 2829.72 2332.08C2823.5 2319.54 2816.75 2305.95 2809.49 2291.33C2802.23 2276.7 2795.49 2261.55 2789.28 2245.88C2783.06 2229.17 2777.89 2212.46 2773.77 2195.75C2768.6 2178 2766.04 2160.25 2766.09 2142.51C2766.18 2112.25 2773.03 2088.8 2786.64 2072.14C2800.26 2055.49 2817.51 2041.97 2838.41 2031.6C2859.31 2021.22 2882.29 2011.9 2907.35 2003.62C2932.42 1994.3 2955.94 1981.85 2977.89 1966.26C3013.44 1942.36 3046.38 1915.85 3076.72 1886.72C3107.07 1856.55 3136.38 1824.81 3164.64 1791.5C3193.95 1758.19 3223.27 1723.85 3252.59 1688.45C3282.95 1653.06 3314.87 1617.16 3348.37 1580.73C3363.02 1564.08 3380.8 1550.05 3401.7 1538.63C3423.65 1526.17 3441.95 1511.09 3456.61 1493.4C3464.99 1484.03 3472.33 1470.49 3478.64 1452.77C3484.95 1435.05 3493.87 1418.9 3505.39 1404.32C3515.86 1390.79 3530 1373.09 3547.8 1351.23C3566.64 1328.33 3584.97 1305.43 3602.77 1282.52C3620.58 1259.62 3635.77 1237.75 3648.35 1216.92C3661.97 1196.09 3668.8 1180.46 3668.83 1170.02C3668.85 1161.67 3660.52 1157.48 3643.82 1157.43C3634.43 1157.4 3621.91 1157.89 3606.26 1158.89C3591.65 1159.89 3575.47 1160.36 3557.73 1160.31C3542.08 1160.27 3524.35 1159.17 3504.53 1157.03C3484.71 1153.84 3463.33 1150.65 3440.39 1147.46C3417.44 1144.26 3393.97 1141.58 3369.98 1139.43C3345.99 1136.23 3321.99 1134.6 3298 1134.53C3265.65 1134.43 3231.73 1137.47 3196.24 1143.63C3160.74 1149.78 3125.26 1152.81 3089.78 1152.71C3072.04 1152.66 3054.83 1151.05 3038.15 1147.87C3021.46 1144.69 3006.87 1138.39 2994.38 1128.96C2981.89 1118.49 2971.49 1103.85 2963.2 1085.05C2955.95 1065.2 2952.38 1038.59 2952.47 1005.2C2953.58 982.244 2963.03 960.359 2980.83 939.542C2998.63 917.681 3021.12 898.964 3048.29 883.39C3075.47 866.773 3106.29 853.819 3140.75 844.527C3175.21 834.191 3210.7 829.076 3247.22 829.18C3279.57 829.273 3316.6 831.466 3358.33 835.759C3400.05 840.052 3442.3 844.868 3485.06 850.208C3527.83 854.504 3568.51 858.794 3607.1 863.079C3646.74 867.366 3680.65 869.55 3708.82 869.63C3731.77 869.696 3756.82 868.724 3783.95 866.715C3811.09 864.706 3838.75 862.699 3866.92 860.692C3896.15 858.689 3924.84 856.685 3953.02 854.678C3981.2 852.672 4007.81 851.705 4032.85 851.777C4061.03 851.857 4081.89 852.439 4095.45 853.521C4109.01 854.603 4120.48 858.81 4129.85 866.141C4140.27 872.431 4150.67 882.895 4161.06 897.533C4171.46 912.17 4187.05 933.084 4207.84 960.272C4217.19 972.82 4228.63 986.417 4242.15 1001.06C4255.68 1014.67 4268.68 1029.83 4281.15 1046.56C4293.63 1062.25 4304.01 1079.5 4312.31 1098.3C4321.65 1116.07 4326.29 1134.34 4326.24 1153.12C4326.17 1177.12 4316.7 1203.7 4297.83 1232.86C4280.01 1262.03 4258.01 1292.22 4231.84 1323.45C4206.71 1353.64 4180.54 1382.78 4153.33 1410.87C4127.17 1438.97 4105.7 1463.95 4088.95 1485.82C4068 1512.89 4047.57 1541 4027.67 1570.16C4007.76 1598.27 3988.38 1625.87 3969.52 1652.94C3961.14 1665.44 3949.63 1676.89 3934.99 1687.28C3921.39 1697.67 3910.4 1709.64 3902.02 1723.18C3892.59 1735.68 3885.76 1751.83 3881.53 1771.64C3878.35 1790.41 3871 1807.09 3859.48 1821.66C3850.05 1835.2 3836.97 1846.64 3820.25 1855.98C3804.57 1865.33 3792.02 1876.25 3782.59 1888.74C3764.8 1908.52 3748.57 1928.82 3733.9 1949.64C3719.23 1969.43 3704.57 1990.25 3689.9 2012.12C3676.27 2032.95 3662.12 2055.35 3647.45 2079.3C3633.81 2103.26 3618.61 2129.3 3601.83 2157.43C3634.16 2163.78 3665.97 2169.61 3697.26 2174.92C3728.54 2180.22 3759.83 2185.01 3791.12 2189.27C3822.42 2192.49 3854.75 2195.19 3888.14 2197.38C3921.52 2199.56 3956.47 2200.7 3992.99 2200.81C4007.6 2200.85 4021.17 2200.37 4033.69 2199.36C4047.26 2198.35 4061.34 2197.87 4075.95 2197.91C4110.38 2198.01 4142.72 2200.71 4172.97 2206.02C4203.21 2211.32 4229.27 2219.74 4251.15 2231.28C4274.08 2241.78 4291.77 2255.92 4304.24 2273.69C4316.72 2290.42 4322.92 2311.31 4322.85 2336.35Z"
            fill="url(#paint0_linear_3_14)" />
    </g>
    <defs>
        <linearGradient id="paint0_linear_3_14" x1="2210.21" y1="-434.147" x2="2200.12" y2="3089.8"
            gradientUnits="userSpaceOnUse">
            <stop stop-color="#2A7131" />
            <stop offset="1" stop-color="#01B013" />
        </linearGradient>
        <clipPath id="clip0_3_14">
            <rect width="4410.75" height="2655" fill="white" />
        </clipPath>
    </defs>
</svg>